<?xml version="1.0" encoding="UTF-8" standalone="no"?>
<svg
   id="Layer_1"
   data-name="Layer 1"
   viewBox="0 0 182.84515 182.84517"
   version="1.1"
   sodipodi:docname="favicon.svg"
   width="182.84517"
   height="182.84517"
   inkscape:version="1.3.2 (091e20e, 2023-11-25, custom)"
   xmlns:inkscape="http://www.inkscape.org/namespaces/inkscape"
   xmlns:sodipodi="http://sodipodi.sourceforge.net/DTD/sodipodi-0.dtd"
   xmlns="http://www.w3.org/2000/svg"
   xmlns:svg="http://www.w3.org/2000/svg"
   xmlns:rdf="http://www.w3.org/1999/02/22-rdf-syntax-ns#"
   xmlns:cc="http://creativecommons.org/ns#"
   xmlns:dc="http://purl.org/dc/elements/1.1/">
  <sodipodi:namedview
     id="namedview10"
     pagecolor="#000000"
     bordercolor="#000000"
     borderopacity="0.25"
     inkscape:showpageshadow="2"
     inkscape:pageopacity="0.0"
     inkscape:pagecheckerboard="0"
     inkscape:deskcolor="#d1d1d1"
     showgrid="false"
     inkscape:zoom="3.3252181"
     inkscape:cx="110.3687"
     inkscape:cy="105.85772"
     inkscape:window-width="3424"
     inkscape:window-height="1356"
     inkscape:window-x="-1"
     inkscape:window-y="6"
     inkscape:window-maximized="1"
     inkscape:current-layer="g12" />
  <defs
     id="defs1">
    <style
       id="style1">.cls-1,.cls-4{fill:#f47321;}.cls-2,.cls-3{fill:#005030;}.cls-3,.cls-4{fill-rule:evenodd;}</style>
  </defs>
  <title
     id="title1">logo</title>
  <g
     id="g12"
     transform="translate(-0.7715285,1.1764816)">
    <g
       id="g13"
       transform="translate(-1.9350586)">
      <circle
         style="fill:#ffffff;stroke-width:0.990229"
         id="path11"
         cx="93.357643"
         cy="91.422585"
         r="91.422585"
         transform="translate(0.7715285,-1.1764816)" />
      <path
         class="cls-3"
         d="m 94.989792,47.944887 a 33.47,33.47 0 0 1 22.809998,9 l 9.7,-9.87 a 47,47 0 0 0 -64.999998,-0.06 l 9.7,9.87 a 33.47,33.47 0 0 1 22.75,-8.92 m 0,68.999993 a 31.27,31.27 0 0 1 -16.68,-4.41 8,8 0 0 0 -10.2,1 c -2.16,2.2 -28.57,28.89001 -28.57,28.89001 a 7.17,7.17 0 0 0 0.34,10.34 7,7 0 0 0 9.68,-0.49 l 25.44,-25.90001 a 46.94,46.94 0 0 0 51.809998,-7.93 l -9.72,-9.89 a 33.44,33.44 0 0 1 -22.099998,8.34"
         id="path8" />
      <g
         id="g11"
         transform="translate(37.462097,33.997032)">
        <path
           class="cls-4"
           d="m 31.357695,71.417855 a 34.77,34.77 0 0 1 -0.65,-46.53 l -10.08,-10.06 a 48.84,48.84 0 0 0 0.67,66.55 z"
           id="path9" />
        <path
           class="cls-4"
           d="m 93.187695,15.177855 -9.71,10 a 35.47,35.47 0 0 1 -0.57,46.14 l 9.69,9.95 a 49.8,49.8 0 0 0 0.64,-66.09"
           id="path10" />
      </g>
    </g>
  </g>
  <metadata
     id="metadata10">
    <rdf:RDF>
      <cc:Work
         rdf:about="">
        <dc:title>logo</dc:title>
      </cc:Work>
    </rdf:RDF>
  </metadata>
</svg>
