<?xml version="1.0" encoding="UTF-8" standalone="no"?>
<svg
   id="Layer_1"
   data-name="Layer 1"
   viewBox="0 0 270.60812 98.982872"
   version="1.1"
   sodipodi:docname="analyze_factors_1.svg"
   inkscape:version="1.3.2 (091e20e, 2023-11-25, custom)"
   width="270.60812"
   height="98.982872"
   xmlns:inkscape="http://www.inkscape.org/namespaces/inkscape"
   xmlns:sodipodi="http://sodipodi.sourceforge.net/DTD/sodipodi-0.dtd"
   xmlns="http://www.w3.org/2000/svg"
   xmlns:svg="http://www.w3.org/2000/svg"
   xmlns:rdf="http://www.w3.org/1999/02/22-rdf-syntax-ns#"
   xmlns:cc="http://creativecommons.org/ns#"
   xmlns:dc="http://purl.org/dc/elements/1.1/">
  <sodipodi:namedview
     id="namedview27"
     pagecolor="#ffffff"
     bordercolor="#000000"
     borderopacity="0.25"
     inkscape:showpageshadow="2"
     inkscape:pageopacity="0.0"
     inkscape:pagecheckerboard="0"
     inkscape:deskcolor="#d1d1d1"
     inkscape:zoom="8.3514286"
     inkscape:cx="172.6052"
     inkscape:cy="48.315087"
     inkscape:window-width="3440"
     inkscape:window-height="1377"
     inkscape:window-x="-8"
     inkscape:window-y="-8"
     inkscape:window-maximized="1"
     inkscape:current-layer="Layer_1" />
  <defs
     id="defs1">
    <style
       id="style1">.cls-1,.cls-2,.cls-5,.cls-6{fill:#fff;}.cls-1,.cls-2,.cls-3,.cls-4,.cls-7{stroke:#fff;stroke-miterlimit:10;}.cls-1{stroke-width:1.34px;}.cls-2{stroke-width:1.65px;}.cls-3,.cls-4,.cls-8{fill:none;}.cls-3{stroke-width:3.19px;}.cls-4{stroke-width:3.24px;}.cls-6{fill-rule:evenodd;}.cls-7{fill:#fcfaf7;}</style>
  </defs>
  <title
     id="title1">icon-analyze-risk-factors</title>
  <path
     class="cls-1"
     d="m 112.93814,46.882874 0.06,-0.1 h -0.07 l -2.4,-30.68 h -7.61 l -4.300001,54.7 h 16.170001 z m -10.52,-2 8.82,2.8 0.63,8 -10.08,-3.21 z m 2.15,-27.39 h 4.29 l 2.26,28.74 -8.6,-2.73 z m -4.09,52.01 1.23,-15.66 10.28,3.26 1,12.39 z"
     id="path1" />
  <path
     class="cls-1"
     d="m 93.398139,70.802874 h -16.21 l 4.3,-54.7 h 7.6 z m -14.35,-1.3 h 12.48 l -4.1,-52.06 h -4.28 z"
     id="path2" />
  <path
     class="cls-1"
     d="m 131.94814,16.102874 h -7.61 l -4.3,54.65 h 16.21 z m -0.06,21.63 -7.32,-2.23 0.53,-6.72 6.24,1.9 z m 0.11,1.44 0.55,7 -8.61,-2.74 0.52,-6.56 z m -1.71,-21.77 0.93,11.85 -6,-1.83 0.79,-10 z m -6.45,27.41 8.83,2.81 1.72,21.85 h -12.48 z"
     id="path3" />
  <path
     class="cls-1"
     d="m 112.86814,6.3528745 c -0.34,-1.69 -2.26,-3 -4.64,-3.22 a 6.15,6.15 0 0 0 -5.11,-2.46000002 c -3.220001,0 -5.830001,2.12000002 -5.830001,4.73000002 0,2.61 2.6,4.6999995 5.820001,4.6999995 a 7,7 0 0 0 1.43,-0.1499995 7,7 0 0 0 3,0.6699995 4.28,4.28 0 0 0 3.2,1.31 c 2.16,0 3.91,-1.37 3.91,-3.0599995 a 2.94,2.94 0 0 0 -1.78,-2.52 z m -2.16,4.3199995 a 2.25,2.25 0 0 1 -1.91,-0.9999995 l -0.26,-0.41 h -0.61 a 4.77,4.77 0 0 1 -2.68,-0.59 l -0.39,-0.23 -0.47,0.13 a 4.73,4.73 0 0 1 -1.27,0.18 c -2.25,0 -4.080001,-1.54 -4.080001,-3.44 0,-1.9 1.830001,-3.43 4.080001,-3.43 a 4.19,4.19 0 0 1 3.71,2 l 0.22,0.4 h 0.59 c 1.89,0 3.45,1.06 3.54,2.37 v 0.37 l 0.44,0.17 a 1.77,1.77 0 0 1 1.23,1.6 2,2 0 0 1 -2.15,1.8799995 z"
     id="path4" />
  <path
     class="cls-1"
     d="m 129.34814,8.1028745 c -0.51,-1 -2.07,-1.78 -3.88,-1.78 -2.24,0 -4.06,1.13 -4.06,2.53 a 2.45,2.45 0 0 0 1.72,2.0699995 c 0.13,1.58 1.94,2.84 4.14,2.84 2.2,0 4.15,-1.36 4.15,-3 a 3,3 0 0 0 -2.07,-2.6599995 z m -2.08,4.3599995 c -1.32,0 -2.39,-0.78 -2.39,-1.74 a 1,1 0 0 1 0,-0.14 l 0.07,-0.49 -0.61,-0.1899995 c -0.73,-0.22 -1.19,-0.63 -1.19,-1.07 0,-0.67 1.06,-1.23 2.31,-1.23 1.25,0 2.12,0.5 2.33,1.07 l 0.09,0.33 0.42,0.14 a 1.81,1.81 0 0 1 1.41,1.5799995 c -0.05,0.95 -1.12,1.73 -2.45,1.73 z"
     id="path5" />
  <path
     class="cls-2"
     d="m 5.4881388,69.102874 a 0.87,0.87 0 0 1 -0.84,-0.68 c -1.53,-6.89 -0.33,-13.43 3.29,-17.95 a 12.76,12.76 0 0 1 10.0000002,-5 c 6.08,0 9.21,5.46 10.56,8.82 1.35,-3.36 4.48,-8.82 10.56,-8.82 a 12.76,12.76 0 0 1 10,5 c 3.61,4.47 4.83,11 3.35,17.82 a 0.87,0.87 0 1 1 -1.62,-0.43 c 1.37,-6.34 0.28,-12.3 -3,-16.37 a 11.06,11.06 0 0 0 -8.67,-4.34 c -7.21,0 -9.69,9.93 -9.71,10 a 0.87,0.87 0 0 1 -0.84,0.66 v 0 a 0.87,0.87 0 0 1 -0.84,-0.66 c 0,-0.1 -2.5,-10 -9.71,-10 a 11.06,11.06 0 0 0 -8.7000002,4.36 c -3.29,4.1 -4.36,10.11 -2.95,16.49 a 0.87,0.87 0 0 1 -0.66,1 z"
     id="path6" />
  <path
     class="cls-2"
     d="m 28.788139,94.502874 a 0.87,0.87 0 0 1 -0.41,-0.1 c -0.5,-0.3 -13.13,-7.07 -19.8000002,-17.4 a 0.87,0.87 0 1 1 1.4600002,-0.9 c 5.75,8.91 16.56,15.29 18.75,16.54 2.15,-1.21 12.36,-7.25 18.23,-15.75 a 0.87,0.87 0 0 1 1.42,1 c -6.76,9.83 -18.71,16.21 -19.21,16.5 a 0.87,0.87 0 0 1 -0.44,0.11 z"
     id="path7" />
  <path
     class="cls-2"
     d="m 27.058139,84.102874 a 0.87,0.87 0 0 1 -0.84,-0.65 l -5.88,-22.5 -3.43,11.82 a 0.86,0.86 0 0 1 -0.84,0.62 l -14.2800002,-0.19 a 0.87,0.87 0 1 1 0,-1.73 l 13.5800002,0.19 4.13,-14.25 a 0.87,0.87 0 0 1 1.67,0 l 5.73,22 1.46,-7.1 a 0.85,0.85 0 0 1 0.86,-0.69 l 5.47,0.07 4.69,-10.19 a 0.87,0.87 0 0 1 1.62,0.13 l 2.79,10.06 11.38,-0.07 v 0 a 0.87,0.87 0 0 1 0,1.73 l -12,0.07 a 0.87,0.87 0 0 1 -0.84,-0.63 l -2.33,-8.42 -3.91,8.52 a 0.89,0.89 0 0 1 -0.8,0.5 l -5.32,-0.06 -2.07,10 a 0.87,0.87 0 0 1 -0.83,0.69 z"
     id="path8" />
  <rect
     class="cls-3"
     x="69.57814"
     y="70.662872"
     width="72.480003"
     height="9.0500002"
     id="rect8" />
  <rect
     class="cls-4"
     x="58.768139"
     y="79.712875"
     width="93.949997"
     height="17.65"
     id="rect9" />
  <path
     class="cls-5"
     d="m 235.16814,82.862874 v 5.67 h -49.68 v -5.67 h 49.67 m 3.19,-3.19 h -54.23 a 1.81,1.81 0 0 0 -1.81,1.81 v 10.24 h 56 v -12 z"
     id="path9" />
  <path
     class="cls-6"
     d="m 185.31814,63.722874 a 9.87,9.87 0 0 0 -6.78,2.71 8.18,8.18 0 0 0 -2.56,6.47 v 4.06 a 0.6,0.6 0 0 0 0.6,0.6 h 2.86 a 0.6,0.6 0 0 0 0.6,-0.6 v -4.36 a 4.9,4.9 0 0 1 4.67,-4.67 l 12.5,-0.3 a 9.26,9.26 0 0 0 6.78,-2.86 13,13 0 0 0 2.11,-3.09 8.49,8.49 0 0 0 0.75,-3.69 7.75,7.75 0 0 0 -0.15,-1.51 8.59,8.59 0 0 0 -0.45,-1.51 13.25,13.25 0 0 0 8.43,-3.87 12.4,12.4 0 0 0 3.11,-8.46 12.08,12.08 0 0 0 -11.57,-11.88 0.6,0.6 0 0 0 -0.63,0.6 v 2.86 a 0.6,0.6 0 0 0 0.58,0.6 7.2,7.2 0 0 1 5.44,2.4 9,9 0 0 1 2.18,5.88 7.15,7.15 0 0 1 -3,6 10.6,10.6 0 0 1 -6.62,2 q -2.71,0 -2.71,1.66 a 16.4,16.4 0 0 0 0.75,2 8.34,8.34 0 0 1 0.6,2.71 7.49,7.49 0 0 1 -1.36,4.37 9.38,9.38 0 0 1 -1.81,1.2 5,5 0 0 1 -2.26,0.45 l -12,0.3 z"
     id="path10" />
  <path
     class="cls-6"
     d="m 174.62814,65.522874 a 12.92,12.92 0 0 0 -0.75,4.37 v 7.07 a 0.6,0.6 0 0 1 -0.6,0.6 h -3 a 0.6,0.6 0 0 1 -0.6,-0.6 v -6.92 a 17.2,17.2 0 0 1 4.37,-11.44 13.08,13.08 0 0 1 10.84,-4.82 l 4.52,0.15 a 16.08,16.08 0 0 1 -1.08,-5.83 14.34,14.34 0 0 1 0.83,-5 12.19,12.19 0 0 1 2.94,-4.37 17,17 0 0 1 4.37,-3 11.45,11.45 0 0 1 4.49,-1 0.58,0.58 0 0 1 0.44,0.17 0.59,0.59 0 0 1 0.18,0.43 v 3 a 0.6,0.6 0 0 1 -0.57,0.6 8.61,8.61 0 0 0 -5.75,2.69 8.78,8.78 0 0 0 -2.72,6.48 9.77,9.77 0 0 0 1.35,5.12 l 1.51,2.56 a 1.86,1.86 0 0 1 -2.11,2.11 l -8.88,0.15 a 9.13,9.13 0 0 0 -7.38,3.76 10.06,10.06 0 0 0 -2.41,3.76 z"
     id="path11" />
  <path
     class="cls-6"
     d="m 173.72814,80.282874 a 0.6,0.6 0 0 0 -0.6,-0.6 h -2.86 a 0.6,0.6 0 0 0 -0.6,0.6 v 10.82 a 0.6,0.6 0 0 0 0.6,0.6 h 2.86 a 0.6,0.6 0 0 0 0.6,-0.6 z"
     id="path12" />
  <path
     class="cls-6"
     d="m 180.04814,80.282874 a 0.6,0.6 0 0 0 -0.6,-0.6 h -2.86 a 0.6,0.6 0 0 0 -0.6,0.6 v 10.82 a 0.6,0.6 0 0 0 0.6,0.6 h 2.86 a 0.6,0.6 0 0 0 0.6,-0.6 z"
     id="path13" />
  <path
     class="cls-6"
     d="m 242.19814,90.102874 v -8.83 h 17.08 a 0.22,0.22 0 0 1 0.21,0.21 v 8.43 a 0.22,0.22 0 0 1 -0.21,0.22 z"
     id="path14" />
  <path
     class="cls-5"
     d="m 257.89814,82.862874 v 5.67 h -14.11 v -5.67 h 14.1 m 1.38,-3.19 h -18.66 v 12 h 18.67 a 1.81,1.81 0 0 0 1.81,-1.81 v -8.38 a 1.81,1.81 0 0 0 -1.81,-1.81 z"
     id="path15" />
  <rect
     class="cls-5"
     x="-180.06813"
     y="-77.572876"
     width="9.8100004"
     height="2.8900001"
     transform="scale(-1)"
     id="rect15" />
  <path
     class="cls-7"
     d="m 66.728139,28.102874 h -32.29 a 3.52,3.52 0 0 1 -3.65,-3.39 v -0.32 a 3.72,3.72 0 0 1 3.69,-3.66 h 18.12 l 3.45,3.25 3.63,-3.25 h 7.05 a 3.82,3.82 0 0 1 3.78,3.66 v 0.32 a 3.62,3.62 0 0 1 -3.78,3.39 z m -32.29,-5.51 a 1.87,1.87 0 0 0 -1.83,1.8 v 0.32 a 1.67,1.67 0 0 0 1.83,1.56 h 32.29 a 1.77,1.77 0 0 0 1.92,-1.56 v -0.32 a 2,2 0 0 0 -1.92,-1.8 h -6.34 l -3.34,3 a 1.57,1.57 0 0 1 -2.08,-0.07 l -3.1,-2.93 z"
     id="path16" />
  <path
     class="cls-7"
     d="m 67.428139,38.182874 h -33.64 a 4.14,4.14 0 0 1 -3.89,-4.43 v -2.65 a 2.37,2.37 0 0 1 2.17,-2.41 h 37.08 a 2.42,2.42 0 0 1 2.21,2.41 v 2.68 a 4.16,4.16 0 0 1 -3.93,4.4 z m -35.36,-7.66 c -0.09,0 -0.31,0.3 -0.31,0.56 v 2.68 a 2.33,2.33 0 0 0 2,2.57 h 33.67 a 2.34,2.34 0 0 0 2.07,-2.57 v -2.66 c 0,-0.24 -0.24,-0.56 -0.36,-0.56 z"
     id="path17" />
  <path
     class="cls-7"
     d="m 69.588139,20.192874 h -37.92 a 2.21,2.21 0 0 1 -2.24,-2.09 c 0,-0.12 0,-0.36 0,-0.46 a 12.16,12.16 0 0 1 1.78,-6.27 16.53,16.53 0 0 1 4.66,-4.9999995 22.9,22.9 0 0 1 6.7,-3.25 27.7,27.7 0 0 1 8.07,-1.17 c 11.7,0 21.21,7 21.21,15.6399995 v 0.51 a 2.21,2.21 0 0 1 -2.26,2.09 z m -19,-16.3299995 a 25.84,25.84 0 0 0 -7.53,1.09 21,21 0 0 0 -6.16,3 14.69,14.69 0 0 0 -4.11,4.3799995 10.32,10.32 0 0 0 -1.52,5.32 c 0,0.09 0,0.3 0,0.41 0,0.11 0.17,0.27 0.39,0.27 h 37.93 c 0.22,0 0.39,-0.14 0.39,-0.27 v -0.42 c 0.01,-7.59 -8.67,-13.7699995 -19.35,-13.7699995 z"
     id="path18" />
  <path
     class="cls-7"
     d="m 45.388139,10.702874 a 0.93,0.93 0 0 1 -0.8,-0.46 l -1.37,-2.3599995 a 0.93,0.93 0 0 1 1.57,-0.93 l 1.36,2.36 a 0.93,0.93 0 0 1 -0.8,1.3899995 z"
     id="path19" />
  <path
     class="cls-7"
     d="m 42.228139,14.382874 a 0.93,0.93 0 0 1 -0.8,-0.46 l -1.36,-2.36 a 0.93,0.93 0 1 1 1.61,-0.93 l 1.36,2.36 a 0.93,0.93 0 0 1 -0.8,1.39 z"
     id="path20" />
  <path
     class="cls-7"
     d="m 51.308139,15.562874 a 0.93,0.93 0 0 1 -0.8,-0.46 l -1.36,-2.36 a 0.94266908,0.94266908 0 1 1 1.64,-0.93 l 1.36,2.36 a 0.93,0.93 0 0 1 -0.8,1.39 z"
     id="path21" />
  <path
     class="cls-7"
     d="m 53.788139,9.5328745 a 0.93,0.93 0 0 1 -0.8,-0.46 l -1.35,-2.37 a 0.93,0.93 0 0 1 1.61,-0.93 l 1.36,2.33 a 0.93,0.93 0 0 1 -0.8,1.39 z"
     id="path22" />
  <path
     class="cls-7"
     d="m 58.508139,15.102874 a 0.93,0.93 0 0 1 -0.8,-0.46 l -1.37,-2.34 a 0.93,0.93 0 1 1 1.61,-0.93 l 1.36,2.36 a 0.93,0.93 0 0 1 -0.8,1.39 z"
     id="path23" />
  <path
     class="cls-7"
     d="m 62.588139,11.882874 a 0.93,0.93 0 0 1 -0.8,-0.46 l -1.36,-2.3199995 a 0.94339811,0.94339811 0 1 1 1.6,-1 l 1.36,2.3599995 a 0.93,0.93 0 0 1 -0.8,1.39 z"
     id="path24" />
  <polygon
     class="cls-3"
     points="175.62,4.98 159.35,4.98 159.35,15.82 148.5,15.82 148.5,32.1 159.35,32.1 159.35,42.94 175.62,42.94 175.62,32.1 186.47,32.1 186.47,15.82 175.62,15.82 "
     id="polygon24"
     transform="translate(-1.2118612,-0.89712552)" />
  <path
     class="cls-1"
     d="m 245.55814,70.682874 c -13.44,0 -24.38,-6.9 -24.38,-15.37 0,-8.47 10.94,-15.37 24.38,-15.37 13.44,0 24.38,6.9 24.38,15.37 0,8.47 -10.94,15.37 -24.38,15.37 z m 0,-28.72 c -12.32,0 -22.35,6 -22.35,13.34 0,7.34 10,13.34 22.35,13.34 12.35,0 22.35,-6 22.35,-13.34 0,-7.34 -10.03,-13.34 -22.35,-13.34 z"
     id="path25" />
  <path
     class="cls-1"
     d="m 245.55814,63.102874 a 7.59,7.59 0 0 1 -3.94,-1.55 7.1,7.1 0 0 0 -2.44,-1.18 10,10 0 0 0 -3.26,0.35 7.87,7.87 0 0 1 -4.13,0.19 5,5 0 0 1 -2.75,-3.16 4.57,4.57 0 0 0 -1,-1.61 10.94,10.94 0 0 0 -2.13,-1.2 c -1.62,-0.77 -3.3,-1.57 -3.3,-3.08 a 0.815,0.815 0 1 1 1.63,0 c 0,0.48 1.43,1.16 2.38,1.61 a 11.94,11.94 0 0 1 2.48,1.42 5.72,5.72 0 0 1 1.4,2.2 c 0.46,1 0.85,1.93 1.81,2.28 a 7.13,7.13 0 0 0 3.25,-0.25 11.11,11.11 0 0 1 3.85,-0.37 8.31,8.31 0 0 1 3.08,1.35 4.28,4.28 0 0 0 6.14,0 8.31,8.31 0 0 1 3.06,-1.41 11.12,11.12 0 0 1 3.85,0.37 7.09,7.09 0 0 0 3.24,0.25 c 1,-0.35 1.36,-1.24 1.81,-2.28 a 5.72,5.72 0 0 1 1.4,-2.2 12,12 0 0 1 2.48,-1.42 c 0.95,-0.45 2.37,-1.13 2.37,-1.61 a 0.815,0.815 0 0 1 1.63,0 c 0,1.51 -1.68,2.31 -3.3,3.08 a 10.93,10.93 0 0 0 -2.13,1.2 4.57,4.57 0 0 0 -1,1.61 5,5 0 0 1 -2.75,3.16 7.86,7.86 0 0 1 -4.13,-0.19 10,10 0 0 0 -3.26,-0.35 7.1,7.1 0 0 0 -2.44,1.18 7.59,7.59 0 0 1 -3.9,1.61 z"
     id="path26" />
  <path
     class="cls-1"
     d="m 245.55814,53.652874 c -3.86,0 -8,-1.12 -8,-3.57 0,-2.45 4.15,-3.58 8,-3.58 3.85,0 8,1.12 8,3.58 0,2.46 -4.14,3.57 -8,3.57 z m 0,-5.12 c -3.87,0 -5.87,1.12 -6,1.55 0.11,0.41 2.1,1.53 6,1.53 3.9,0 5.84,-1.11 6,-1.54 -0.16,-0.43 -2.16,-1.53 -6,-1.53 z m 6,1.55 z"
     id="path27" />
  <metadata
     id="metadata27">
    <rdf:RDF>
      <cc:Work
         rdf:about="">
        <dc:title>icon-analyze-risk-factors</dc:title>
      </cc:Work>
    </rdf:RDF>
  </metadata>
</svg>
