<svg xmlns="http://www.w3.org/2000/svg" viewBox="0 0 475 600"><defs><style>.cls-1{fill:#ededed;}.cls-10,.cls-11,.cls-15,.cls-2,.cls-9{fill:none;}.cls-13,.cls-3,.cls-4,.cls-7{fill:#fff;}.cls-10,.cls-11,.cls-13,.cls-15,.cls-4{stroke:#444;}.cls-10,.cls-11,.cls-13,.cls-14,.cls-15,.cls-4,.cls-7,.cls-8,.cls-9{stroke-miterlimit:10;}.cls-15,.cls-4{stroke-width:4px;}.cls-14,.cls-5,.cls-8{fill:#444;}.cls-6{fill:#f47321;}.cls-14,.cls-7,.cls-8,.cls-9{stroke:#fff;}.cls-8,.cls-9{stroke-width:1.5px;}.cls-10{stroke-linecap:round;stroke-width:5.65px;}.cls-11,.cls-13{stroke-width:4.5px;}.cls-12{fill:#963b03;}.cls-14{stroke-width:0.5px;}</style></defs><title>icon-factors-affecting-health</title><g id="Layer_1" data-name="Layer 1"><rect class="cls-1" x="105.44" y="413.08" width="123" height="61"/><rect class="cls-1" x="112.44" y="251.08" width="185.01" height="57.01"/><rect class="cls-1" x="260.83" y="469.49" width="11.16" height="11.16" transform="translate(741.48 208.66) rotate(90)"/><rect class="cls-1" x="292.85" y="452.74" width="11.16" height="44.66" transform="translate(773.5 176.64) rotate(90)"/><rect class="cls-1" x="311.74" y="484.44" width="11.16" height="10.55" transform="translate(807.03 172.4) rotate(90)"/><rect class="cls-1" x="298.38" y="484.44" width="11.16" height="10.55" transform="translate(793.68 185.76) rotate(90)"/><rect class="cls-1" x="273.83" y="484.02" width="11.16" height="10.55" transform="translate(768.71 209.89) rotate(90)"/><rect class="cls-1" x="260.14" y="498.76" width="11.16" height="10.55" transform="translate(769.75 238.31) rotate(90)"/><rect class="cls-1" x="164.86" y="423.83" width="11.16" height="11.16" transform="translate(599.84 258.97) rotate(90)"/><rect class="cls-1" x="214.11" y="407.08" width="11.16" height="44.66" transform="translate(649.1 209.72) rotate(90)"/><rect class="cls-1" x="299.5" y="364.99" width="11.16" height="87.18" transform="translate(713.65 103.5) rotate(90)"/><rect class="cls-1" x="220.98" y="403.3" width="11.16" height="10.55" transform="translate(635.13 182.02) rotate(90)"/><rect class="cls-1" x="229.92" y="403.13" width="12.38" height="30.23" transform="translate(654.36 182.12) rotate(90)"/><rect class="cls-1" x="197.5" y="459.21" width="11.16" height="33.61" transform="translate(679.1 272.93) rotate(90)"/><rect class="cls-1" x="259.09" y="397.56" width="11.16" height="134.5" transform="translate(729.47 200.14) rotate(90)"/><rect class="cls-1" x="221.32" y="409.73" width="12.22" height="86.69" transform="translate(680.5 225.64) rotate(90)"/><rect class="cls-1" x="233.6" y="422.01" width="12.22" height="38.79" transform="translate(681.12 201.69) rotate(90)"/><rect class="cls-1" x="251.75" y="450.98" width="31.77" height="11.16"/><rect class="cls-1" x="313.76" y="403.92" width="11.16" height="10.55" transform="translate(728.54 89.85) rotate(90)"/><rect class="cls-1" x="274.22" y="448.11" width="11.16" height="10.55" transform="translate(733.18 173.58) rotate(90)"/><rect class="cls-1" x="270.81" y="413.29" width="11.16" height="10.55" transform="translate(552.78 837.12) rotate(-180)"/><rect class="cls-1" x="147.48" y="424.17" width="11.16" height="10.55" transform="translate(306.11 858.9) rotate(-180)"/><rect class="cls-1" x="307.41" y="431.21" width="11.16" height="10.55" transform="translate(625.99 872.97) rotate(-180)"/><rect class="cls-1" x="349.36" y="459.22" width="11.16" height="10.55" transform="translate(819.43 109.56) rotate(90)"/><rect class="cls-1" x="238.56" y="504.17" width="11.16" height="11.16" transform="translate(753.88 265.61) rotate(90)"/><rect class="cls-1" x="270.57" y="487.42" width="11.16" height="44.66" transform="translate(785.9 233.59) rotate(90)"/><rect class="cls-1" x="289.46" y="519.12" width="11.16" height="10.55" transform="translate(819.43 229.35) rotate(90)"/><rect class="cls-1" x="276.11" y="519.12" width="11.16" height="10.55" transform="translate(806.08 242.7) rotate(90)"/><rect class="cls-1" x="251.56" y="518.7" width="11.16" height="10.55" transform="translate(781.11 266.83) rotate(90)"/><rect class="cls-1" x="142.58" y="458.5" width="11.16" height="11.16" transform="translate(612.24 315.92) rotate(90)"/><rect class="cls-1" x="191.83" y="441.75" width="11.16" height="44.66" transform="translate(661.49 266.67) rotate(90)"/><rect class="cls-1" x="277.22" y="399.66" width="11.16" height="87.18" transform="translate(726.05 160.45) rotate(90)"/><rect class="cls-1" x="198.7" y="437.97" width="11.16" height="10.55" transform="translate(647.53 238.97) rotate(90)"/><rect class="cls-1" x="207.65" y="437.8" width="12.38" height="30.23" transform="translate(666.75 239.07) rotate(90)"/><rect class="cls-1" x="175.23" y="493.88" width="11.16" height="33.61" transform="translate(691.49 329.88) rotate(90)"/><rect class="cls-1" x="236.81" y="432.23" width="11.16" height="134.5" transform="translate(741.87 257.09) rotate(90)"/><rect class="cls-1" x="199.04" y="444.4" width="12.22" height="86.69" transform="translate(692.9 282.59) rotate(90)"/><rect class="cls-1" x="211.33" y="456.68" width="12.22" height="38.79" transform="translate(693.51 258.64) rotate(90)"/><rect class="cls-1" x="229.47" y="485.65" width="31.77" height="11.16"/><rect class="cls-1" x="291.49" y="438.59" width="11.16" height="10.55" transform="translate(740.94 146.8) rotate(90)"/><rect class="cls-1" x="251.94" y="482.78" width="11.16" height="10.55" transform="translate(745.58 230.53) rotate(90)"/><rect class="cls-1" x="248.53" y="447.96" width="11.16" height="10.55" transform="translate(508.22 906.47) rotate(-180)"/><rect class="cls-1" x="125.2" y="458.85" width="11.16" height="10.55" transform="translate(261.56 928.24) rotate(-180)"/><rect class="cls-1" x="285.14" y="465.88" width="11.16" height="10.55" transform="translate(581.44 942.32) rotate(-180)"/><rect class="cls-1" x="327.08" y="493.89" width="11.16" height="10.55" transform="translate(831.83 166.51) rotate(90)"/><rect class="cls-1" x="343.39" y="469.49" width="11.16" height="11.16" transform="translate(824.04 126.1) rotate(90)"/><rect class="cls-1" x="380.94" y="484.44" width="11.16" height="10.55" transform="translate(876.24 103.2) rotate(90)"/><rect class="cls-1" x="356.39" y="484.02" width="11.16" height="10.55" transform="translate(851.27 127.33) rotate(90)"/><rect class="cls-1" x="342.7" y="498.76" width="11.16" height="10.55" transform="translate(852.31 155.75) rotate(90)"/><rect class="cls-1" x="258.42" y="423.83" width="11.16" height="11.16" transform="translate(693.41 165.41) rotate(90)"/><rect class="cls-1" x="296.67" y="407.08" width="11.16" height="44.66" transform="translate(731.66 127.16) rotate(90)"/><rect class="cls-1" x="359.23" y="387.81" width="11.16" height="41.53" transform="translate(773.39 43.76) rotate(90)"/><rect class="cls-1" x="303.54" y="403.3" width="11.16" height="10.55" transform="translate(717.69 99.46) rotate(90)"/><rect class="cls-1" x="326.53" y="389.08" width="12.38" height="58.31" transform="translate(750.96 85.52) rotate(90)"/><rect class="cls-1" x="280.06" y="459.21" width="11.16" height="33.61" transform="translate(761.65 190.37) rotate(90)"/><rect class="cls-1" x="341.64" y="397.56" width="11.16" height="134.5" transform="translate(812.03 117.59) rotate(90)"/><rect class="cls-1" x="303.88" y="409.73" width="12.22" height="86.69" transform="translate(763.06 143.08) rotate(90)"/><rect class="cls-1" x="316.16" y="422.01" width="12.22" height="38.79" transform="translate(763.68 119.13) rotate(90)"/><rect class="cls-1" x="334.31" y="450.98" width="31.77" height="11.16"/><rect class="cls-1" x="356.78" y="448.11" width="11.16" height="10.55" transform="translate(815.74 91.03) rotate(90)"/><rect class="cls-1" x="230.04" y="424.17" width="11.16" height="10.55" transform="translate(471.23 858.9) rotate(-180)"/><rect class="cls-1" x="389.97" y="431.21" width="11.16" height="10.55" transform="translate(791.11 872.97) rotate(-180)"/><rect class="cls-1" x="106.26" y="341.16" width="13.32" height="11.16" transform="translate(459.65 233.82) rotate(90)"/><rect class="cls-1" x="74.24" y="324.41" width="13.32" height="44.66" transform="translate(427.63 265.84) rotate(90)"/><rect class="cls-1" x="94.34" y="353.69" width="11.16" height="10.55" transform="translate(458.87 259.05) rotate(90)"/><rect class="cls-1" x="108.03" y="368.42" width="11.16" height="10.55" transform="translate(487.3 260.09) rotate(90)"/><rect class="cls-1" x="203.31" y="296.49" width="11.16" height="11.16" transform="translate(510.97 93.18) rotate(90)"/><rect class="cls-1" x="91.49" y="257.47" width="11.16" height="41.53" transform="translate(375.31 181.17) rotate(90)"/><rect class="cls-1" x="170.66" y="328.87" width="11.16" height="33.61" transform="translate(521.92 169.43) rotate(90)"/><rect class="cls-1" x="109.08" y="267.22" width="11.16" height="134.5" transform="translate(449.13 219.81) rotate(90)"/><rect class="cls-1" x="145.79" y="279.39" width="12.22" height="86.69" transform="translate(474.63 170.84) rotate(90)"/><rect class="cls-1" x="133.5" y="291.67" width="12.22" height="38.79" transform="translate(450.68 171.45) rotate(90)"/><rect class="cls-1" x="95.81" y="320.64" width="31.77" height="11.16"/><rect class="cls-1" x="54.4" y="273.58" width="11.16" height="10.55" transform="translate(338.84 218.87) rotate(90)"/><rect class="cls-1" x="93.95" y="317.77" width="11.16" height="10.55" transform="translate(422.57 223.52) rotate(90)"/><rect class="cls-1" x="97.36" y="280.95" width="11.16" height="10.55"/><rect class="cls-1" x="220.69" y="296.84" width="11.16" height="10.55"/><rect class="cls-1" x="60.75" y="300.87" width="11.16" height="10.55"/><rect class="cls-1" x="18.81" y="328.88" width="11.16" height="10.55" transform="translate(358.55 309.77) rotate(90)"/><rect class="cls-1" x="132.49" y="364.21" width="11.16" height="11.16" transform="translate(507.85 231.72) rotate(90)"/><rect class="cls-1" x="100.47" y="347.46" width="11.16" height="44.66" transform="translate(475.83 263.74) rotate(90)"/><rect class="cls-1" x="35.52" y="375.16" width="11.16" height="10.55" transform="translate(421.53 339.33) rotate(90)"/><rect class="cls-1" x="73.92" y="375.16" width="11.16" height="10.55" transform="translate(459.92 300.93) rotate(90)"/><rect class="cls-1" x="119.48" y="378.74" width="11.16" height="10.55" transform="translate(509.08 258.95) rotate(90)"/><rect class="cls-1" x="133.18" y="393.47" width="11.16" height="10.55" transform="translate(537.5 259.99) rotate(90)"/><rect class="cls-1" x="278.13" y="307.49" width="11.16" height="11.16" transform="translate(596.78 29.36) rotate(90)"/><rect class="cls-1" x="231.88" y="290.74" width="11.16" height="44.66" transform="translate(550.53 75.61) rotate(90)"/><rect class="cls-1" x="192.15" y="285.96" width="11.16" height="10.55" transform="translate(488.96 93.5) rotate(90)"/><rect class="cls-1" x="225.29" y="297.24" width="11.16" height="10.55" transform="translate(533.38 71.64) rotate(90)"/><rect class="cls-1" x="195.81" y="352.92" width="11.16" height="33.61" transform="translate(571.12 168.33) rotate(90)"/><rect class="cls-1" x="132.84" y="289.88" width="11.16" height="137.28" transform="translate(496.94 220.1) rotate(90)"/><rect class="cls-1" x="223.61" y="293.39" width="12.22" height="86.69" transform="translate(566.45 107.01) rotate(90)"/><rect class="cls-1" x="211.33" y="305.67" width="12.22" height="38.79" transform="translate(542.5 107.63) rotate(90)"/><rect class="cls-1" x="120.96" y="343.69" width="31.77" height="11.16"/><rect class="cls-1" x="132.23" y="287.58" width="11.16" height="10.55" transform="translate(430.66 155.05) rotate(90)"/><rect class="cls-1" x="171.77" y="331.77" width="11.16" height="10.55" transform="translate(514.39 159.69) rotate(90)"/><rect class="cls-1" x="295.43" y="436.94" width="11.16" height="10.55"/><rect class="cls-1" x="300.52" y="307.83" width="11.16" height="10.55"/><rect class="cls-1" x="289.52" y="308.14" width="11.16" height="10.55"/><rect class="cls-1" x="258.83" y="456.87" width="11.16" height="10.55"/><rect class="cls-1" x="309.75" y="423.25" width="11.16" height="10.55"/><rect class="cls-1" x="47.52" y="352.93" width="11.16" height="10.55" transform="translate(411.31 305.1) rotate(90)"/><rect class="cls-1" x="263.48" y="375.55" width="11.16" height="11.16" transform="translate(650.19 112.07) rotate(90)"/><rect class="cls-1" x="235.47" y="358.8" width="11.16" height="44.66" transform="translate(622.17 140.08) rotate(90)"/><rect class="cls-1" x="208.58" y="386.5" width="11.16" height="10.55" transform="translate(605.93 177.62) rotate(90)"/><rect class="cls-1" x="230.93" y="386.5" width="11.16" height="10.55" transform="translate(628.28 155.26) rotate(90)"/><rect class="cls-1" x="252.48" y="386.08" width="11.16" height="10.55" transform="translate(649.41 133.29) rotate(90)"/><rect class="cls-1" x="416.13" y="317.83" width="11.16" height="11.16" transform="translate(745.12 -98.31) rotate(90)"/><rect class="cls-1" x="366.88" y="301.08" width="11.16" height="44.66" transform="translate(695.87 -49.05) rotate(90)"/><rect class="cls-1" x="304.32" y="281.81" width="11.16" height="41.53" transform="translate(612.47 -7.32) rotate(90)"/><rect class="cls-1" x="333.16" y="297.3" width="11.16" height="10.55" transform="translate(641.31 -36.16) rotate(90)"/><rect class="cls-1" x="360.29" y="307.58" width="11.16" height="10.55" transform="translate(678.72 -53.02) rotate(90)"/><rect class="cls-1" x="330.81" y="364.26" width="11.16" height="33.61" transform="translate(717.46 44.68) rotate(90)"/><rect class="cls-1" x="269.23" y="302.62" width="11.16" height="134.5" transform="translate(644.68 95.05) rotate(90)"/><rect class="cls-1" x="358.61" y="303.73" width="12.22" height="86.69" transform="translate(711.79 -17.65) rotate(90)"/><rect class="cls-1" x="346.33" y="316.01" width="12.22" height="38.79" transform="translate(687.84 -17.03) rotate(90)"/><rect class="cls-1" x="255.96" y="354.04" width="31.77" height="11.16"/><rect class="cls-1" x="267.23" y="277.31" width="11.16" height="51.77" transform="translate(576 30.39) rotate(90)"/><rect class="cls-1" x="306.77" y="342.11" width="11.16" height="10.55" transform="translate(659.73 35.03) rotate(90)"/><rect class="cls-1" x="430.43" y="447.29" width="11.16" height="10.55"/><rect class="cls-1" x="433.51" y="318.17" width="11.16" height="10.55"/><rect class="cls-1" x="393.83" y="470.21" width="11.16" height="10.55"/><rect class="cls-1" x="444.75" y="433.59" width="11.16" height="10.55"/><rect class="cls-1" x="178.96" y="364.27" width="11.16" height="10.55" transform="translate(554.09 185.01) rotate(90)"/><polyline class="cls-2" points="194.47 168.05 326.43 168.05 326.43 351.08 153.64 351.08 153.64 488.07 318.3 488.07"/><rect class="cls-3" x="259.44" y="446.07" width="131" height="88"/><rect class="cls-1" x="343.3" y="193.44" width="11.16" height="11.16" transform="translate(547.89 -149.86) rotate(90)"/><rect class="cls-1" x="371.91" y="173.28" width="11.16" height="51.46" transform="translate(576.51 -178.48) rotate(90)"/><rect class="cls-1" x="354.3" y="204.96" width="11.16" height="10.55" transform="translate(570.11 -149.64) rotate(90)"/><rect class="cls-1" x="382.31" y="204.96" width="11.16" height="10.55" transform="translate(598.13 -177.65) rotate(90)"/><rect class="cls-1" x="64.52" y="213.5" width="11.16" height="11.16" transform="translate(289.18 148.97) rotate(90)"/><rect class="cls-1" x="113.3" y="196.83" width="11.16" height="44.66" transform="translate(338.05 100.28) rotate(90)"/><rect class="cls-1" x="176.2" y="179.9" width="11.16" height="41.53" transform="translate(382.45 18.88) rotate(90)"/><rect class="cls-1" x="147.36" y="195.39" width="11.16" height="10.55" transform="translate(353.6 47.72) rotate(90)"/><rect class="cls-1" x="120.23" y="205.66" width="11.16" height="10.55" transform="translate(336.74 85.13) rotate(90)"/><rect class="cls-1" x="341.55" y="121.51" width="11.16" height="134.5" transform="translate(535.88 -158.38) rotate(90)"/><rect class="cls-1" x="120.85" y="201.81" width="12.22" height="86.69" transform="translate(372.12 118.2) rotate(90)"/><rect class="cls-1" x="133.13" y="214.1" width="12.22" height="38.79" transform="translate(372.73 94.25) rotate(90)"/><rect class="cls-1" x="334.21" y="172.92" width="31.77" height="11.16"/><rect class="cls-1" x="173.75" y="240.2" width="11.16" height="10.55" transform="translate(424.8 66.14) rotate(90)"/><rect class="cls-1" x="170.34" y="203.37" width="11.16" height="10.55" transform="translate(351.84 417.29) rotate(-180)"/><rect class="cls-1" x="43.52" y="213.84" width="11.16" height="10.55" transform="translate(98.21 438.23) rotate(-180)"/><rect class="cls-1" x="206.94" y="223.3" width="11.16" height="10.55" transform="translate(425.05 457.15) rotate(-180)"/><rect class="cls-1" x="156.02" y="189.68" width="11.16" height="10.55" transform="translate(323.21 389.91) rotate(-180)"/><rect class="cls-1" x="431.82" y="183.16" width="11.16" height="10.55" transform="translate(625.84 -248.96) rotate(90)"/><rect class="cls-1" x="300.84" y="296.5" width="11.16" height="11.16" transform="translate(608.49 -4.34) rotate(90)"/><rect class="cls-1" x="332.86" y="279.75" width="11.16" height="44.66" transform="translate(640.51 -36.36) rotate(90)"/><rect class="cls-1" x="351.74" y="311.45" width="11.16" height="10.55" transform="translate(674.04 -40.6) rotate(90)"/><rect class="cls-1" x="338.39" y="311.45" width="11.16" height="10.55" transform="translate(660.69 -27.25) rotate(90)"/><rect class="cls-1" x="313.84" y="311.03" width="11.16" height="10.55" transform="translate(635.72 -3.12) rotate(90)"/><rect class="cls-1" x="300.15" y="325.76" width="11.16" height="10.55" transform="translate(636.76 25.31) rotate(90)"/><rect class="cls-1" x="204.86" y="250.83" width="11.16" height="11.16" transform="translate(466.86 45.97) rotate(90)"/><rect class="cls-1" x="254.12" y="234.08" width="11.16" height="44.66" transform="translate(516.11 -3.28) rotate(90)"/><rect class="cls-1" x="316.68" y="214.81" width="11.16" height="41.53" transform="translate(557.84 -86.68) rotate(90)"/><rect class="cls-1" x="260.99" y="230.3" width="11.16" height="10.55" transform="translate(502.14 -30.99) rotate(90)"/><rect class="cls-1" x="247.38" y="207.57" width="12.38" height="75.34" transform="translate(498.81 -8.32) rotate(90)"/><rect class="cls-1" x="237.51" y="286.21" width="11.16" height="33.61" transform="translate(546.11 59.92) rotate(90)"/><rect class="cls-1" x="299.09" y="224.56" width="11.16" height="134.5" transform="translate(596.48 -12.86) rotate(90)"/><rect class="cls-1" x="261.33" y="236.73" width="12.22" height="86.69" transform="translate(547.51 12.64) rotate(90)"/><rect class="cls-1" x="273.61" y="249.01" width="12.22" height="38.79" transform="translate(548.13 -11.31) rotate(90)"/><rect class="cls-1" x="291.75" y="277.98" width="31.77" height="11.16"/><rect class="cls-1" x="353.77" y="230.92" width="11.16" height="10.55" transform="translate(595.55 -123.15) rotate(90)"/><rect class="cls-1" x="314.23" y="275.11" width="11.16" height="10.55" transform="translate(600.19 -39.42) rotate(90)"/><rect class="cls-1" x="310.82" y="238.29" width="11.16" height="10.55" transform="translate(632.79 487.13) rotate(-180)"/><rect class="cls-1" x="187.48" y="251.18" width="11.16" height="10.55" transform="translate(386.13 512.91) rotate(-180)"/><rect class="cls-1" x="347.42" y="258.21" width="11.16" height="10.55" transform="translate(706 526.98) rotate(-180)"/><rect class="cls-1" x="296.5" y="224.6" width="11.16" height="10.55" transform="translate(604.17 459.74) rotate(-180)"/><rect class="cls-1" x="389.37" y="286.22" width="11.16" height="10.55" transform="translate(686.44 -103.45) rotate(90)"/><rect class="cls-1" x="348.17" y="147.5" width="11.16" height="11.16" transform="translate(506.83 -200.68) rotate(90)"/><rect class="cls-1" x="380.19" y="130.75" width="11.16" height="44.66" transform="translate(538.85 -232.69) rotate(90)"/><rect class="cls-1" x="397.07" y="158.45" width="11.16" height="10.55" transform="translate(566.37 -238.93) rotate(90)"/><rect class="cls-1" x="373.71" y="158.45" width="11.16" height="10.55" transform="translate(543.01 -215.57) rotate(90)"/><rect class="cls-1" x="361.17" y="162.03" width="11.16" height="10.55" transform="translate(534.05 -199.45) rotate(90)"/><rect class="cls-1" x="347.48" y="176.76" width="11.16" height="10.55" transform="translate(535.1 -171.02) rotate(90)"/><rect class="cls-1" x="284.7" y="103.84" width="44.66" height="11.16"/><rect class="cls-1" x="367.35" y="89.49" width="11.16" height="41.53" transform="translate(483.18 -262.67) rotate(90)"/><rect class="cls-1" x="308.32" y="81.31" width="11.16" height="10.55" transform="translate(400.48 -227.32) rotate(90)"/><rect class="cls-1" x="317.27" y="81.13" width="12.38" height="30.23" transform="translate(419.7 -227.21) rotate(90)"/><rect class="cls-1" x="284.85" y="137.21" width="11.16" height="33.61" transform="translate(444.44 -136.41) rotate(90)"/><rect class="cls-1" x="346.43" y="75.57" width="11.16" height="134.5" transform="translate(494.82 -209.19) rotate(90)"/><rect class="cls-1" x="308.66" y="87.73" width="12.22" height="86.69" transform="translate(445.85 -183.69) rotate(90)"/><rect class="cls-1" x="320.94" y="100.02" width="12.22" height="38.79" transform="translate(446.46 -207.64) rotate(90)"/><rect class="cls-1" x="339.09" y="128.99" width="31.77" height="11.16"/><rect class="cls-1" x="367.8" y="119.87" width="11.16" height="23.04" transform="translate(504.77 -241.99) rotate(90)"/><rect class="cls-1" x="361.48" y="115.97" width="43.11" height="10.55" transform="translate(766.08 242.48) rotate(-180)"/><rect class="cls-1" x="341.16" y="94.27" width="11.16" height="10.55" transform="translate(693.49 199.09) rotate(-180)"/><rect class="cls-1" x="436.7" y="137.22" width="11.16" height="10.55" transform="translate(584.78 -299.78) rotate(90)"/><rect class="cls-1" x="127.35" y="192.83" width="11.16" height="11.16" transform="translate(331.34 65.48) rotate(90)"/><rect class="cls-1" x="176.61" y="176.08" width="11.16" height="44.66" transform="translate(380.6 16.23) rotate(90)"/><rect class="cls-1" x="231.23" y="148.87" width="11.16" height="57.42" transform="translate(414.38 -59.23) rotate(90)"/><rect class="cls-1" x="210.33" y="172.3" width="11.16" height="10.55" transform="translate(393.49 -38.33) rotate(90)"/><rect class="cls-1" x="183.2" y="182.58" width="11.16" height="10.55" transform="translate(376.63 -0.92) rotate(90)"/><rect class="cls-1" x="160" y="228.21" width="11.16" height="33.61" transform="translate(410.6 79.43) rotate(90)"/><rect class="cls-1" x="218.58" y="166.56" width="11.16" height="134.5" transform="translate(457.97 9.65) rotate(90)"/><rect class="cls-1" x="183.82" y="178.73" width="12.22" height="86.69" transform="translate(412 32.15) rotate(90)"/><rect class="cls-1" x="196.1" y="191.01" width="12.22" height="38.79" transform="translate(412.62 8.2) rotate(90)"/><rect class="cls-1" x="286.27" y="172.92" width="11.16" height="10.55" transform="translate(470.05 -113.65) rotate(90)"/><rect class="cls-1" x="233.04" y="213.56" width="12.04" height="17.02" transform="translate(461.14 -16.98) rotate(90)"/><rect class="cls-1" x="214.41" y="183.29" width="69.02" height="10.55" transform="translate(497.84 377.13) rotate(-180)"/><rect class="cls-1" x="109.97" y="193.18" width="11.16" height="10.55" transform="translate(231.11 396.91) rotate(-180)"/><rect class="cls-1" x="218.99" y="166.6" width="11.16" height="10.55" transform="translate(449.14 343.74) rotate(-180)"/><rect class="cls-1" x="311.86" y="228.22" width="11.16" height="10.55" transform="translate(550.93 -83.94) rotate(90)"/><rect class="cls-1" x="54.26" y="156.13" width="11.16" height="11.16" transform="translate(221.54 101.87) rotate(90)"/><rect class="cls-1" x="103.51" y="139.38" width="11.16" height="44.66" transform="translate(270.8 52.62) rotate(90)"/><rect class="cls-1" x="158.13" y="112.16" width="11.16" height="57.42" transform="translate(304.58 -22.83) rotate(90)"/><rect class="cls-1" x="137.23" y="135.6" width="11.16" height="10.55" transform="translate(283.69 -1.94) rotate(90)"/><rect class="cls-1" x="110.1" y="145.88" width="11.16" height="10.55" transform="translate(266.83 35.47) rotate(90)"/><rect class="cls-1" x="101.61" y="176.8" width="11.16" height="63.01" transform="translate(315.5 101.12) rotate(90)"/><rect class="cls-1" x="185.23" y="90.11" width="12.97" height="215.8" transform="translate(389.73 6.3) rotate(90)"/><rect class="cls-1" x="110.72" y="142.03" width="12.22" height="86.69" transform="translate(302.2 68.54) rotate(90)"/><rect class="cls-1" x="123" y="154.31" width="12.22" height="38.79" transform="translate(302.81 44.59) rotate(90)"/><rect class="cls-1" x="213.17" y="136.22" width="11.16" height="10.55" transform="translate(360.24 -77.26) rotate(90)"/><rect class="cls-1" x="159.94" y="176.86" width="12.04" height="17.02" transform="translate(351.33 19.41) rotate(90)"/><rect class="cls-1" x="159.21" y="146.59" width="11.16" height="10.55" transform="translate(329.57 303.72) rotate(-180)"/><rect class="cls-1" x="31.86" y="156.47" width="11.16" height="10.55" transform="translate(74.87 323.5) rotate(-180)"/><rect class="cls-1" x="145.89" y="129.89" width="11.16" height="10.55" transform="translate(302.95 270.33) rotate(-180)"/><rect class="cls-1" x="238.76" y="191.52" width="11.16" height="10.55" transform="translate(441.13 -47.54) rotate(90)"/><rect class="cls-1" x="166.35" y="136.33" width="11.16" height="11.16" transform="translate(313.85 -30.02) rotate(90)"/><rect class="cls-1" x="215.61" y="119.58" width="11.16" height="44.66" transform="translate(363.1 -79.27) rotate(90)"/><rect class="cls-1" x="270.23" y="92.37" width="11.16" height="57.42" transform="translate(396.88 -154.73) rotate(90)"/><rect class="cls-1" x="249.33" y="115.8" width="11.16" height="10.55" transform="translate(375.99 -133.83) rotate(90)"/><rect class="cls-1" x="222.2" y="126.08" width="11.16" height="10.55" transform="translate(359.13 -96.42) rotate(90)"/><rect class="cls-1" x="199" y="171.71" width="11.16" height="33.61" transform="translate(393.1 -16.07) rotate(90)"/><rect class="cls-1" x="257.58" y="110.07" width="11.16" height="134.5" transform="translate(440.47 -85.85) rotate(90)"/><rect class="cls-1" x="222.82" y="122.23" width="12.22" height="86.69" transform="translate(394.5 -63.35) rotate(90)"/><rect class="cls-1" x="235.1" y="134.52" width="12.22" height="38.79" transform="translate(395.12 -87.3) rotate(90)"/><rect class="cls-1" x="272.04" y="157.07" width="12.04" height="17.02" transform="translate(443.64 -112.48) rotate(90)"/><rect class="cls-1" x="272.31" y="123.79" width="11.16" height="10.55" transform="translate(555.77 258.13) rotate(-180)"/><rect class="cls-1" x="148.97" y="136.68" width="11.16" height="10.55" transform="translate(309.11 283.91) rotate(-180)"/><rect class="cls-1" x="257.99" y="105.09" width="11.16" height="10.55" transform="translate(527.14 220.74) rotate(-180)"/><rect class="cls-1" x="350.86" y="171.72" width="11.16" height="10.55" transform="translate(533.43 -179.44) rotate(90)"/><rect class="cls-2" x="-1.47" y="-0.03" width="477.17" height="600.83"/><path class="cls-4" d="M294.52,325.1V366h42.92V325.1a9.62,9.62,0,0,0-9.62-9.62H304.14A9.62,9.62,0,0,0,294.52,325.1Z"/><path class="cls-5" d="M337.44,367.24H294.52a1.26,1.26,0,0,1-1.26-1.26V325.1a10.89,10.89,0,0,1,10.88-10.88h23.69A10.89,10.89,0,0,1,338.7,325.1V366A1.26,1.26,0,0,1,337.44,367.24Zm-41.66-2.52h40.4V325.1a8.36,8.36,0,0,0-8.35-8.36H304.14a8.37,8.37,0,0,0-8.36,8.36Z"/><path class="cls-4" d="M251.6,325.1V366h42.92V325.1a9.62,9.62,0,0,0-9.62-9.62H261.21A9.62,9.62,0,0,0,251.6,325.1Z"/><path class="cls-5" d="M294.52,367.24H251.6a1.26,1.26,0,0,1-1.26-1.26V325.1a10.89,10.89,0,0,1,10.88-10.88H284.9a10.89,10.89,0,0,1,10.88,10.88V366A1.26,1.26,0,0,1,294.52,367.24Zm-41.66-2.52h40.4V325.1a8.36,8.36,0,0,0-8.35-8.36H261.21a8.37,8.37,0,0,0-8.36,8.36Z"/><path class="cls-3" d="M260.43,358.4a1.26,1.26,0,0,1-1.26-1.26v-32a2,2,0,0,1,2-2H284.9a1.26,1.26,0,1,1,0,2.52H261.7v31.56A1.26,1.26,0,0,1,260.43,358.4Z"/><path class="cls-4" d="M337.44,366h42.92V325.1a9.62,9.62,0,0,0-9.62-9.62H347.06a9.62,9.62,0,0,0-9.62,9.62Z"/><path class="cls-5" d="M380.36,367.24H337.44a1.26,1.26,0,0,1-1.26-1.26V325.1a10.89,10.89,0,0,1,10.88-10.88h23.69a10.89,10.89,0,0,1,10.88,10.88V366A1.26,1.26,0,0,1,380.36,367.24Zm-41.66-2.52h40.4V325.1a8.36,8.36,0,0,0-8.35-8.36H347.06a8.37,8.37,0,0,0-8.36,8.36Z"/><path class="cls-4" d="M380.36,336.73h0a11.36,11.36,0,0,1,11.36,11.36v44.18H369V348.09A11.36,11.36,0,0,1,380.36,336.73Z"/><path class="cls-5" d="M391.72,393.54H369a1.26,1.26,0,0,1-1.26-1.26V348.1a12.62,12.62,0,0,1,25.25,0v44.18A1.26,1.26,0,0,1,391.72,393.54ZM370.26,391h20.2V348.1a10.1,10.1,0,0,0-20.2,0Z"/><path class="cls-4" d="M251.6,336.73h0A11.36,11.36,0,0,1,263,348.09v44.18H240.23V348.09A11.36,11.36,0,0,1,251.6,336.73Z"/><path class="cls-5" d="M263,393.54H240.23a1.26,1.26,0,0,1-1.26-1.26V348.1a12.62,12.62,0,0,1,25.25,0v44.18A1.26,1.26,0,0,1,263,393.54ZM241.5,391h20.2V348.1a10.1,10.1,0,0,0-20.2,0Z"/><rect class="cls-4" x="262.96" y="379.08" width="106.04" height="13.2"/><path class="cls-5" d="M369,393.54H263a1.26,1.26,0,0,1-1.26-1.26v-13.2a1.26,1.26,0,0,1,1.26-1.26H369a1.26,1.26,0,0,1,1.26,1.26v13.2A1.26,1.26,0,0,1,369,393.54ZM264.22,391H367.74V380.34H264.22Z"/><path class="cls-4" d="M272,352.88h87.91a9.07,9.07,0,0,1,9.07,9.07v17.13a0,0,0,0,1,0,0H263a0,0,0,0,1,0,0V361.95A9.07,9.07,0,0,1,272,352.88Z"/><path class="cls-5" d="M369,380.34H263a1.26,1.26,0,0,1-1.26-1.26V361.95A10.34,10.34,0,0,1,272,351.62h87.91a10.34,10.34,0,0,1,10.33,10.33v17.13A1.26,1.26,0,0,1,369,380.34Zm-104.78-2.52H367.74V361.95a7.81,7.81,0,0,0-7.8-7.8H272a7.81,7.81,0,0,0-7.8,7.8Z"/><path class="cls-3" d="M385.94,414.4l-3.67,1s-8.67.17-9.17,5,23.5,1.67,23.5,1.67l1.83-3.33L397.16,406"/><path class="cls-3" d="M312.1,57.08c1.67-1.33,8.67-4.67,13.67-2.67s10.65,12.1,7.83,19.72c0,0,10.17,6.28,7.51,16.28s-11.28,17.36-11.28,17.36,18.62,8.64,25.62,18,19.11,25,14.72,62.33l-73.72-2,2-66.33s-5.5-8.15-7.08-16.91a44.58,44.58,0,0,1,.08-16.09s-7-5.33-5-10.67,11.75-12.49,18.87-11.25"/><line class="cls-6" x1="360.73" y1="264.47" x2="348.72" y2="259.11"/><polygon class="cls-7" points="345.3 259.42 344.6 273.3 342.01 276.12 330.71 276.83 323.13 285.68 360.83 284.83 361.3 265.3 345.3 259.42"/><path class="cls-8" d="M356.46,288.86H326.31a3.18,3.18,0,0,1-3.18-3.18,12.59,12.59,0,0,1,12.57-12.57h3.65a2.57,2.57,0,0,0,2.57-2.57V260.13a3.18,3.18,0,0,1,6.35,0v10.41a8.93,8.93,0,0,1-8.92,8.92h-3.65a6.23,6.23,0,0,0-5.35,3h26.1a1.13,1.13,0,0,0,1.13-1.13V263.76a3.18,3.18,0,0,1,6.35,0v17.62A7.49,7.49,0,0,1,356.46,288.86Z"/><path class="cls-8" d="M316.91,288.86H298.12a3.18,3.18,0,0,1-3.18-3.18,12.59,12.59,0,0,1,12.57-12.57h3.65a2.57,2.57,0,0,0,2.57-2.57V261.7a3.18,3.18,0,1,1,6.35,0v8.85a8.93,8.93,0,0,1-8.92,8.92h-3.65a6.23,6.23,0,0,0-5.35,3h14.74a3.18,3.18,0,1,1,0,6.35Z"/><path class="cls-5" d="M335,106a17.88,17.88,0,0,0,6.3-6.38c3.3-5.5,4-12.29,1.91-17.71a18,18,0,0,0-7.09-8.78,16.18,16.18,0,1,0-30.56-9.82l-.2.15a16,16,0,0,0-21.49,15.11,16.07,16.07,0,0,0,3.94,10.51c-1.73,6.41-1.18,14.27,1.54,21.76a26.44,26.44,0,0,0,5.63,9.19V187a3.18,3.18,0,0,0,3.18,3.18h72a3.18,3.18,0,0,0,3.18-3.18V172.68C373.33,134.52,359.75,118.64,335,106Zm-13.53-49.6a9.85,9.85,0,0,1,9.84,9.84c0,.07,0,.13,0,.2l-.05-.06a13.51,13.51,0,0,0-1-1.23l0,0a14.53,14.53,0,0,0-2.48-2.22l-.06,0a16.1,16.1,0,0,0-1.41-.88l-.09-.05-.1,0q-.42-.22-.85-.43l-.15-.07c-.34-.16-.7-.31-1.06-.45a20.05,20.05,0,0,0-10.08-1.08A9.8,9.8,0,0,1,321.43,56.42Zm-26.51,13.8a9.48,9.48,0,0,1,9.53-.2,3.17,3.17,0,0,0,3.85-.68,9,9,0,0,1,1.88-1.56,10.56,10.56,0,0,1,1.32-.7l.17-.08a12,12,0,0,1,1.39-.49l.2-.06a13.28,13.28,0,0,1,1.5-.32l.14,0a14.12,14.12,0,0,1,1.61-.13h.08a14.29,14.29,0,0,1,1.66.06h.05a13.88,13.88,0,0,1,1.66.27h0a12.9,12.9,0,0,1,1.53.45l.13,0a11.45,11.45,0,0,1,1.47.67l.06,0c.2.11.41.24.62.38l.07,0c.22.15.44.31.65.48l.1.08a7.71,7.71,0,0,1,1.22,1.28l.09.12a6.84,6.84,0,0,1,.5.79l0,.09a6.76,6.76,0,0,1,.36.85l0,.13a7.13,7.13,0,0,1,.25,1c0,.07,0,.14,0,.22a8,8,0,0,1,.09,1.16,3.18,3.18,0,0,0,2.42,3.09h0a10.85,10.85,0,0,1,7.55,7c1.4,3.58.83,8.35-1.44,12.14a11.82,11.82,0,0,1-3.7,4,36.4,36.4,0,0,0,.14-4.53c0-.11,0-.22,0-.33,0-.62-.06-1.23-.12-1.84s-.17-1.45-.29-2.15q-.09-.51-.22-1c-1.26-4.66-5.19-5.83-9.34-7.07a44,44,0,0,1-11.32-4.77q-1-.58-2-1.27a3.14,3.14,0,0,0-.41-.24l-.13-.05-.3-.12-.16,0-.28-.06-.18,0-.27,0h-.12a3.16,3.16,0,0,0-.72.09l-.07,0a3.2,3.2,0,0,0-.72.3,30.87,30.87,0,0,1-9.43,3.68,11.75,11.75,0,0,0-5,2,9.72,9.72,0,0,1,3.71-12.72ZM294.11,90l.17-.54s.05-.08.07-.13c.6-1.6.65-1.62,3.3-2.24A37.11,37.11,0,0,0,307,83.71a49.68,49.68,0,0,0,13.41,5.81c4.48,1.34,4.88,1.69,5.12,3.05.09.53.16,1.08.22,1.64,0,.17,0,.35,0,.52,0,.41.06.83.07,1.25,0,.18,0,.35,0,.53,0,.53,0,1.07,0,1.61,0,.29,0,.58-.05.87s0,.53-.06.8-.07.74-.12,1.11c0,.1,0,.21,0,.31-.13.92-.29,1.85-.49,2.78,0,0,0,0,0,0a36.36,36.36,0,0,1-1.34,4.65c-2.5,6.89-8.36,11.7-14.25,11.7s-11.74-4.81-14.25-11.7C292.92,102.2,292.48,95.22,294.11,90ZM367,183.81H301.29V124.75a18.65,18.65,0,0,0,8.24,2c8.64,0,16.76-6.38,20.22-15.88,0-.1.06-.2.1-.3,24.31,11.8,37.14,24.82,37.14,62.12Z"/><path class="cls-9" d="M335,106a17.88,17.88,0,0,0,6.3-6.38c3.3-5.5,4-12.29,1.91-17.71a18,18,0,0,0-7.09-8.78,16.18,16.18,0,1,0-30.56-9.82l-.2.15a16,16,0,0,0-21.49,15.11,16.07,16.07,0,0,0,3.94,10.51c-1.73,6.41-1.18,14.27,1.54,21.76a26.44,26.44,0,0,0,5.63,9.19V187a3.18,3.18,0,0,0,3.18,3.18h72a3.18,3.18,0,0,0,3.18-3.18V172.68C373.33,134.52,359.75,118.64,335,106Zm-13.53-49.6a9.85,9.85,0,0,1,9.84,9.84c0,.07,0,.13,0,.2l-.05-.06a13.51,13.51,0,0,0-1-1.23l0,0a14.53,14.53,0,0,0-2.48-2.22l-.06,0a16.1,16.1,0,0,0-1.41-.88l-.09-.05-.1,0q-.42-.22-.85-.43l-.15-.07c-.34-.16-.7-.31-1.06-.45a20.05,20.05,0,0,0-10.08-1.08A9.8,9.8,0,0,1,321.43,56.42Zm-26.51,13.8a9.48,9.48,0,0,1,9.53-.2,3.17,3.17,0,0,0,3.85-.68,9,9,0,0,1,1.88-1.56,10.56,10.56,0,0,1,1.32-.7l.17-.08a12,12,0,0,1,1.39-.49l.2-.06a13.28,13.28,0,0,1,1.5-.32l.14,0a14.12,14.12,0,0,1,1.61-.13h.08a14.29,14.29,0,0,1,1.66.06h.05a13.88,13.88,0,0,1,1.66.27h0a12.9,12.9,0,0,1,1.53.45l.13,0a11.45,11.45,0,0,1,1.47.67l.06,0c.2.11.41.24.62.38l.07,0c.22.15.44.31.65.48l.1.08a7.71,7.71,0,0,1,1.22,1.28l.09.12a6.84,6.84,0,0,1,.5.79l0,.09a6.76,6.76,0,0,1,.36.85l0,.13a7.13,7.13,0,0,1,.25,1c0,.07,0,.14,0,.22a8,8,0,0,1,.09,1.16,3.18,3.18,0,0,0,2.42,3.09h0a10.85,10.85,0,0,1,7.55,7c1.4,3.58.83,8.35-1.44,12.14a11.82,11.82,0,0,1-3.7,4,36.4,36.4,0,0,0,.14-4.53c0-.11,0-.22,0-.33,0-.62-.06-1.23-.12-1.84s-.17-1.45-.29-2.15q-.09-.51-.22-1c-1.26-4.66-5.19-5.83-9.34-7.07a44,44,0,0,1-11.32-4.77q-1-.58-2-1.27a3.14,3.14,0,0,0-.41-.24l-.13-.05-.3-.12-.16,0-.28-.06-.18,0-.27,0h-.12a3.16,3.16,0,0,0-.72.09l-.07,0a3.2,3.2,0,0,0-.72.3,30.87,30.87,0,0,1-9.43,3.68,11.75,11.75,0,0,0-5,2,9.72,9.72,0,0,1,3.71-12.72ZM294.11,90l.17-.54s.05-.08.07-.13c.6-1.6.65-1.62,3.3-2.24A37.11,37.11,0,0,0,307,83.71a49.68,49.68,0,0,0,13.41,5.81c4.48,1.34,4.88,1.69,5.12,3.05.09.53.16,1.08.22,1.64,0,.17,0,.35,0,.52,0,.41.06.83.07,1.25,0,.18,0,.35,0,.53,0,.53,0,1.07,0,1.61,0,.29,0,.58-.05.87s0,.53-.06.8-.07.74-.12,1.11c0,.1,0,.21,0,.31-.13.92-.29,1.85-.49,2.78,0,0,0,0,0,0a36.36,36.36,0,0,1-1.34,4.65c-2.5,6.89-8.36,11.7-14.25,11.7s-11.74-4.81-14.25-11.7C292.92,102.2,292.48,95.22,294.11,90ZM367,183.81H301.29V124.75a18.65,18.65,0,0,0,8.24,2c8.64,0,16.76-6.38,20.22-15.88,0-.1.06-.2.1-.3,24.31,11.8,37.14,24.82,37.14,62.12Z"/><path class="cls-6" d="M370.16,260.56a3.09,3.09,0,0,1-3.18-3V191.07a3.18,3.18,0,0,1,6.35,0v66.49A3.09,3.09,0,0,1,370.16,260.56Z"/><path class="cls-6" d="M310.12,266.31a3.17,3.17,0,0,1-1.29-.28l-12-5.36a3.18,3.18,0,1,1,2.59-5.8l10.7,4.78,10.71-4.78a3.16,3.16,0,0,1,2.59,0l10.71,4.78,10.71-4.78a3.16,3.16,0,0,1,2.59,0l10.72,4.78,10.72-4.78a3.18,3.18,0,0,1,2.59,5.8l-12,5.36a3.16,3.16,0,0,1-2.59,0l-10.72-4.78L335.43,266a3.16,3.16,0,0,1-2.59,0l-10.72-4.78L311.42,266A3.17,3.17,0,0,1,310.12,266.31Z"/><path class="cls-6" d="M298.12,259.82a3.09,3.09,0,0,1-3.18-3V191.07a3.18,3.18,0,0,1,6.35,0v65.75A3.09,3.09,0,0,1,298.12,259.82Z"/><polygon class="cls-6" points="373.27 187.99 294.94 187.99 294.94 197.07 300.71 197.07 300.71 259.11 312.71 264.46 324.71 259.11 336.72 264.46 348.72 259.11 360.74 264.46 372.75 259.11 372.75 258.72 372.75 197.07 373.27 197.07 373.27 187.99"/><path class="cls-10" d="M307.44,209.08a14.12,14.12,0,1,1,26.4-7v82.24"/><path class="cls-3" d="M311.42,173.29l16.47,10.35s-4.58,15.45-17.18,7.53S311.42,173.29,311.42,173.29Z"/><path class="cls-5" d="M343.34,127.92a3.18,3.18,0,1,0-5.91,2.33c9.85,25,4.77,30.5-2.91,38.77a72.07,72.07,0,0,0-7.88,9.63l-10.47-6.18a41.19,41.19,0,0,1,5.18-4.8c8.79-7.23,13.75-13.66,3-36.41a3.18,3.18,0,0,0-5.75,2.71c9.41,20,5.14,23.48-1.32,28.79-3,2.5-6.49,5.34-9.05,10l-2.51,4.55a12.57,12.57,0,0,0,11,18.66c.39,0,.79,0,1.19-.06a12.57,12.57,0,0,0,9.83-6.44l2.2-4a2.94,2.94,0,0,0,1.05-1.82,60.27,60.27,0,0,1,8.17-10.29C347.48,164.4,354.65,156.69,343.34,127.92Zm-26,61.63a6.22,6.22,0,0,1-6-9.2l1.41-2.54,10.72,6.32-1.24,2.24A6.22,6.22,0,0,1,317.33,189.55Z"/><path class="cls-9" d="M343.34,127.92a3.18,3.18,0,1,0-5.91,2.33c9.85,25,4.77,30.5-2.91,38.77a72.07,72.07,0,0,0-7.88,9.63l-10.47-6.18a41.19,41.19,0,0,1,5.18-4.8c8.79-7.23,13.75-13.66,3-36.41a3.18,3.18,0,0,0-5.75,2.71c9.41,20,5.14,23.48-1.32,28.79-3,2.5-6.49,5.34-9.05,10l-2.51,4.55a12.57,12.57,0,0,0,11,18.66c.39,0,.79,0,1.19-.06a12.57,12.57,0,0,0,9.83-6.44l2.2-4a2.94,2.94,0,0,0,1.05-1.82,60.27,60.27,0,0,1,8.17-10.29C347.48,164.4,354.65,156.69,343.34,127.92Zm-26,61.63a6.22,6.22,0,0,1-6-9.2l1.41-2.54,10.72,6.32-1.24,2.24A6.22,6.22,0,0,1,317.33,189.55Z"/><path class="cls-3" d="M124.33,483.14v39.29H171V510.15a15.7,15.7,0,0,0,9.82-14.73V483.14Z"/><path class="cls-11" d="M171,522.43V510.15a15.7,15.7,0,0,0,9.82-14.73V483.14H124.33v39.29"/><rect class="cls-6" x="119.41" y="522.43" width="56.48" height="17.19"/><polyline class="cls-6" points="119.41 539.62 119.41 522.43 175.9 522.43 175.9 539.62"/><polyline class="cls-12" points="165.44 539.62 165.44 522.43 175.9 522.43 175.9 539.62"/><rect class="cls-13" x="87.49" y="424.2" width="130.16" height="63.85"/><path class="cls-11" d="M198,475.77H107.14a7.37,7.37,0,0,0-7.37-7.37h0V443.85h0a7.37,7.37,0,0,0,7.37-7.37H198a7.37,7.37,0,0,0,7.37,7.37v24.56h0a7.37,7.37,0,0,0-7.37,7.37Z"/><line class="cls-11" x1="121.87" y1="456.13" x2="126.78" y2="456.13"/><line class="cls-11" x1="178.35" y1="456.13" x2="185.72" y2="456.13"/><ellipse class="cls-13" cx="152.57" cy="456.12" rx="11.05" ry="12.28"/><path class="cls-3" d="M151.34,502.79s-.77-19.65-19.65-19.65V466c0-11.2-17.19-15.86-17.19-7.37v35.61c0,9.21,9.82,16.07,9.82,16.07V520Z"/><path class="cls-11" d="M151.34,502.79s-.77-19.65-19.65-19.65V466c0-11.2-17.19-15.86-17.19-7.37v35.61c0,9.21,9.82,16.07,9.82,16.07V520"/><line class="cls-11" x1="126.78" y1="532.26" x2="134.15" y2="532.26"/><path class="cls-14" d="M268.88,538.38H382.23a12.14,12.14,0,0,0,12.12-12.12V454.87a12.14,12.14,0,0,0-12.12-12.12h-31v-6.32a9.39,9.39,0,0,0-9.38-9.38H309.21a9.39,9.39,0,0,0-9.38,9.38v6.32h-31a12.14,12.14,0,0,0-12.12,12.12v71.38A12.14,12.14,0,0,0,268.88,538.38ZM261.8,486c3.37,3.43,8.81,6.82,17.39,9.68,10,3.32,22.67,5.43,36.53,6.1v7.44a2.52,2.52,0,0,0,2.52,2.52h14.62a2.52,2.52,0,0,0,2.52-2.52v-7.44c22.93-1.11,44.46-6.16,53.91-15.76v40.25a7.08,7.08,0,0,1-7.07,7.07H268.88a7.08,7.08,0,0,1-7.08-7.07Zm0-31.1a7.08,7.08,0,0,1,7.08-7.07H382.23a7.08,7.08,0,0,1,7.07,7.07v19.75c0,13-26.26,20.59-53.91,22.06V490.4a2.52,2.52,0,0,0-2.52-2.52H318.24a2.52,2.52,0,0,0-2.52,2.52v6.29c-27.65-1.47-53.91-9.1-53.91-22.06Zm68.54,42v9.79h-9.58V492.92h9.58Zm-25.46-60.46a4.34,4.34,0,0,1,4.33-4.33h32.68a4.34,4.34,0,0,1,4.33,4.33v6.32H304.88Z"/><rect class="cls-6" x="112.06" y="214.56" width="39.44" height="13.04"/><path class="cls-3" d="M178.72,131.9l-3.27,12.78c-7-6.12-14.1-12.58-20.23-18.92,2.66-2.84,5.1-5.66,7.27-8.47A204.85,204.85,0,0,0,178.72,131.9Z"/><path class="cls-3" d="M153.65,70.69c9.5,0,13.57,8,15.31,15a19.41,19.41,0,0,0-30.61,0C140.08,78.65,144.14,70.69,153.65,70.69Z"/><path class="cls-3" d="M139.33,104.21l0,0v0a18.12,18.12,0,0,1-2.25-7.9c0-.37,0-.74.06-1.11.88-6.28,3.78-8.91,4.25-9.4,1.92,6.31,5.55,13,10.82,19.85-2.13,2.68-4.55,5.42-7.2,8.19A50.32,50.32,0,0,1,139.33,104.21Z"/><path class="cls-3" d="M145.53,116.54l0,0a1.08,1.08,0,0,0,.15-.17,125.32,125.32,0,0,0,8.68-9.87,1.13,1.13,0,0,0,.28-.37q8.3-10.68,11.26-20.38a15.14,15.14,0,0,1,4.31,10.51c0,2.67-.93,5.07-2.33,7.86v0l0,0c-2.86,6.64-8.32,13.65-15.05,20.75h0v0c-6.25,6.58-13.58,13.23-21,19.73l-3.27-12.78A199.52,199.52,0,0,0,145.53,116.54Z"/><path class="cls-5" d="M170.44,157.86,159.9,170.44a21.48,21.48,0,0,0-5,13.77l.15,35.16a7.36,7.36,0,0,0,7.35,7.32h0l20.66-.07a6.84,6.84,0,0,0,6.82-6.92l0-3.58a10,10,0,0,1,2.41-6.63L220.85,176h0a10.66,10.66,0,0,0,2.52-7.8s0,0,0,0l-4.46-67.69a10.75,10.75,0,0,0-11.42-10,10.72,10.72,0,0,0-10,11.19,10.73,10.73,0,0,0-6.72,10.63l.91,20.16-5.34,6.37Zm-49.32-18.35-5.88-7,.91-20.12a10.76,10.76,0,0,0-6.72-10.67A10.72,10.72,0,0,0,88,100.5l-4.46,67.69s0,0,0,0a10.65,10.65,0,0,0,2.52,7.8h0l28.52,33.38a10.29,10.29,0,0,1,2.47,6.8l0,3.49a6.84,6.84,0,0,0,6.82,6.92l20.67.07h0a7.36,7.36,0,0,0,7.35-7.32l.15-35.17a21.48,21.48,0,0,0-5-13.76l-10.54-12.58ZM190.4,108V97.14m13.13,0a6.2,6.2,0,0,1,10.86,3.67l4.46,67.69v0s0,0,0,0a6.16,6.16,0,0,1-1.46,4.56h0l-28.58,33.46a14.55,14.55,0,0,0-3.49,9.62l0,3.58a2.32,2.32,0,0,1-2.31,2.34l-20.67.07a2.34,2.34,0,0,1-2-.82,2.81,2.81,0,0,1-.84-2l-.15-35.15a17,17,0,0,1,4-10.85l32.35-38.6a6.21,6.21,0,0,1,9.44,8.07l-25.58,29.95a8.27,8.27,0,0,0,12.51,10.84l0,0,0,0,0,0,0,0c4.71-5.29,7.3-18.34,8.66-28.66l7.75-9.07a10.64,10.64,0,0,0-5.83-17.39,252.83,252.83,0,0,0-.76-26.72A6.14,6.14,0,0,1,203.53,97.13Zm-14.76,83.39,0,0,0,0a3.76,3.76,0,1,1-5.71-4.88l12.23-14.32C193.53,170.94,191.26,177.78,188.77,180.52Zm9.05-73.85c.44,6.88.59,14.23.42,21.64a10.71,10.71,0,0,0-2.19.7l-.77-16.94A6.2,6.2,0,0,1,197.82,106.68Zm-86.19,5.44L110.87,129a10.7,10.7,0,0,0-2.19-.7c-.16-7.41,0-14.75.42-21.64A6.24,6.24,0,0,1,111.64,112.12ZM92.53,100.8a6.21,6.21,0,0,1,12.4.78c0,.43-.06.89-.09,1.32h0s0,0,0,0a253.79,253.79,0,0,0-.67,25.41,10.58,10.58,0,0,0-4.64,2.26,10.74,10.74,0,0,0-1.19,15.13l7.75,9.07c1.36,10.31,3.95,23.36,8.65,28.65l0,0,0,0,0,0,0,0a8.27,8.27,0,0,0,12.5-10.84l-25.58-29.95a6.21,6.21,0,0,1,9.44-8.09l32.36,38.62a16.94,16.94,0,0,1,4,10.84l-.15,35.16a2.84,2.84,0,0,1-2.83,2.82h0l-20.67-.07a2.32,2.32,0,0,1-2.31-2.34l0-3.49a14.82,14.82,0,0,0-3.55-9.79L89.52,173.09h0a6.17,6.17,0,0,1-1.46-4.56s0,0,0,0v0Zm31.39,74.89a3.76,3.76,0,0,1-.42,5.3,3.78,3.78,0,0,1-5.3-.42l0,0,0,0c-2.49-2.74-4.76-9.59-6.47-19.15Z"/><path class="cls-3" d="M203.53,97.13a6.2,6.2,0,0,1,10.86,3.67l4.46,67.69v0s0,0,0,0a6.16,6.16,0,0,1-1.46,4.56h0l-28.58,33.46a14.55,14.55,0,0,0-3.49,9.62l0,3.58a2.32,2.32,0,0,1-2.31,2.34l-20.67.07a2.34,2.34,0,0,1-2-.82,2.81,2.81,0,0,1-.84-2l-.15-35.15a17,17,0,0,1,4-10.85l32.35-38.6a6.21,6.21,0,0,1,9.44,8.07l-25.58,29.95a8.27,8.27,0,0,0,12.51,10.84l0,0,0,0,0,0,0,0c4.71-5.29,7.3-18.34,8.66-28.66l7.75-9.07a10.64,10.64,0,0,0-5.83-17.39,252.83,252.83,0,0,0-.76-26.72A6.14,6.14,0,0,1,203.53,97.13Z"/><path class="cls-3" d="M197.82,106.68c.44,6.88.59,14.23.42,21.64a10.71,10.71,0,0,0-2.19.7l-.77-16.94A6.2,6.2,0,0,1,197.82,106.68Z"/><path class="cls-3" d="M111.64,112.12,110.87,129a10.7,10.7,0,0,0-2.19-.7c-.16-7.41,0-14.75.42-21.64A6.24,6.24,0,0,1,111.64,112.12Z"/><path class="cls-3" d="M92.53,100.8a6.21,6.21,0,0,1,12.4.78c0,.43-.06.89-.09,1.32h0s0,0,0,0a253.79,253.79,0,0,0-.67,25.41,10.58,10.58,0,0,0-4.64,2.26,10.74,10.74,0,0,0-1.19,15.13l7.75,9.07c1.36,10.31,3.95,23.36,8.65,28.65l0,0,0,0,0,0,0,0a8.27,8.27,0,0,0,12.5-10.84l-25.58-29.95a6.21,6.21,0,0,1,9.44-8.09l32.36,38.62a16.94,16.94,0,0,1,4,10.84l-.15,35.16a2.84,2.84,0,0,1-2.83,2.82h0l-20.67-.07a2.32,2.32,0,0,1-2.31-2.34l0-3.49a14.82,14.82,0,0,0-3.55-9.79L89.52,173.09h0a6.17,6.17,0,0,1-1.46-4.56s0,0,0,0v0Z"/><rect class="cls-6" x="112.06" y="214.56" width="39.44" height="13.04"/><rect class="cls-12" x="143.8" y="214.56" width="7.7" height="13.04"/><rect class="cls-6" x="155.42" y="214.56" width="39.44" height="13.04"/><rect class="cls-12" x="187.6" y="214.56" width="7.7" height="13.04"/><polygon class="cls-15" points="181.91 95.5 165.95 95.5 165.95 79.53 142 79.53 142 95.5 126.03 95.5 126.03 119.45 142 119.45 142 135.42 165.95 135.42 165.95 119.45 181.91 119.45 181.91 95.5"/><rect class="cls-12" x="110.08" y="315.74" width="86.69" height="41"/><polygon class="cls-3" points="112.44 316.41 112.77 276.08 134.1 276.08 135.44 260.41 147.44 260.41 147.44 275.08 194.44 276.74 195.24 316.63 112.44 316.41"/><rect class="cls-6" x="138.12" y="291.74" width="7.4" height="11.63"/><rect class="cls-6" x="115.44" y="317.18" width="80.83" height="73.94"/><polygon class="cls-12" points="114.86 316.06 114.86 329.45 152.64 349.73 192.04 329.45 196.27 317.18 114.86 316.06"/><path class="cls-5" d="M194.16,273.77h-44.4V260a2.12,2.12,0,0,0-2.11-2.11H136a2.12,2.12,0,0,0-2.11,2.11v13.74H112.75a2.12,2.12,0,0,0-2.11,2.11V391.12a2.12,2.12,0,0,0,2.11,2.11h81.41a2.12,2.12,0,0,0,2.11-2.11V275.89A2.12,2.12,0,0,0,194.16,273.77ZM192,389H114.86V334l37.78,15.7a2.13,2.13,0,0,0,1.62,0L192,334ZM114.86,278h7.4v6.43a8,8,0,0,0-5.29-2.2h-2.11ZM192,329.45l-38.59,16-38.59-16v-9.16H192Zm-77.18-13.39v-29.6H117A4,4,0,0,1,120.4,289l1.87,6.23,2,6.82c0,.06,0,.11.07.17a7.66,7.66,0,0,0,2.11,3.19,8,8,0,0,0,5.29,2.2h43.35a8,8,0,0,0,5.29-2.2,7.66,7.66,0,0,0,2.11-3.19c0-.06.05-.11.07-.17l2-6.82,1.87-6.22a4,4,0,0,1,3.42-2.54H192v29.6Zm23.26-24.32h7.4v11.63h-7.4ZM192,282.23h-2.11a8,8,0,0,0-5.29,2.2V278H192Zm-11.63,12.38-1.87,6.22a4,4,0,0,1-3.42,2.54H173V278h7.4Zm-11.63,8.77h-7.4V278h7.4Zm-11.63,0h-7.4V278h7.4Zm-19-41.23h7.4v25.37h-7.4Zm-4.23,41.23h-2.11a4,4,0,0,1-3.42-2.54l-1.87-6.22V278h7.4Z"/><path class="cls-6" d="M153.64,345.63l43.17-18.56v63.87a3,3,0,0,1-3,3H113.07a3,3,0,0,1-3-3V327.4Z"/><rect class="cls-6" x="314.44" y="486.61" width="22" height="26.46" rx="3.86" ry="3.86"/></g></svg>