<svg id="Layer_1" data-name="Layer 1" xmlns="http://www.w3.org/2000/svg" viewBox="0 0 370 325"><defs><style>.cls-1{fill:#ededed;}.cls-13,.cls-14,.cls-15,.cls-2,.cls-7{fill:none;}.cls-2{stroke:#ccc;stroke-width:4px;stroke-dasharray:12.16 12.16;}.cls-10,.cls-11,.cls-12,.cls-13,.cls-14,.cls-15,.cls-16,.cls-17,.cls-2,.cls-6,.cls-9{stroke-miterlimit:10;}.cls-3,.cls-9{fill:#fff;}.cls-10,.cls-11,.cls-12,.cls-16,.cls-4,.cls-6{fill:#444;}.cls-17,.cls-5{fill:#f47321;}.cls-10,.cls-11,.cls-12,.cls-15,.cls-16,.cls-6,.cls-9{stroke:#444;}.cls-6{stroke-width:0.5px;}.cls-8{fill:#963b03;}.cls-13,.cls-15,.cls-9{stroke-width:3px;}.cls-10,.cls-14{stroke-width:2px;}.cls-12{stroke-width:0.76px;}.cls-13,.cls-14{stroke:#fff;}.cls-16{stroke-width:0.25px;}.cls-17{stroke:#f47321;stroke-width:3.27px;}</style></defs><title>icon-health-more-than-healthcare</title><rect class="cls-1" x="272.98" y="234.42" width="11.16" height="33.61" transform="translate(529.78 -27.33) rotate(90)"/><rect class="cls-1" x="305.92" y="245.91" width="11.16" height="10.63" transform="translate(562.73 -60.28) rotate(90)"/><rect class="cls-1" x="86.97" y="228.96" width="11.16" height="44.66" transform="translate(343.83 158.74) rotate(90)"/><rect class="cls-1" x="275.87" y="177.75" width="11.16" height="33.64" transform="translate(476.02 -86.88) rotate(90)"/><rect class="cls-1" x="218.38" y="172.24" width="11.16" height="44.66" transform="translate(418.53 -29.39) rotate(90)"/><rect class="cls-1" x="178.65" y="167.46" width="11.16" height="10.55" transform="translate(356.96 -11.5) rotate(90)"/><rect class="cls-1" x="211.79" y="178.74" width="11.16" height="10.55" transform="translate(401.38 -33.36) rotate(90)"/><rect class="cls-1" x="182.31" y="234.42" width="11.16" height="33.61" transform="translate(439.12 63.33) rotate(90)"/><rect class="cls-1" x="119.34" y="171.38" width="11.16" height="137.28" transform="translate(364.94 115.1) rotate(90)"/><rect class="cls-1" x="210.11" y="174.89" width="12.22" height="86.69" transform="translate(434.45 2.01) rotate(90)"/><rect class="cls-1" x="197.83" y="187.17" width="12.22" height="38.79" transform="translate(410.5 2.63) rotate(90)"/><rect class="cls-1" x="107.46" y="225.19" width="31.77" height="11.16"/><rect class="cls-1" x="116.95" y="168.08" width="11.16" height="10.55" transform="translate(295.89 50.82) rotate(90)"/><rect class="cls-1" x="158.27" y="213.27" width="11.16" height="10.55" transform="translate(382.39 54.69) rotate(90)"/><rect class="cls-1" x="287.02" y="189.33" width="11.16" height="10.55"/><rect class="cls-1" x="34.02" y="234.43" width="11.16" height="10.55" transform="translate(279.31 200.1) rotate(90)"/><rect class="cls-1" x="224.84" y="178" width="11.16" height="11.16" transform="translate(413.99 -46.84) rotate(90)"/><rect class="cls-1" x="246.62" y="151.01" width="11.16" height="65.13" transform="translate(435.78 -68.63) rotate(90)"/><rect class="cls-1" x="224.15" y="207.26" width="11.16" height="10.55" transform="translate(442.26 -17.19) rotate(90)"/><rect class="cls-1" x="128.86" y="132.33" width="11.16" height="11.16" transform="translate(272.36 3.47) rotate(90)"/><rect class="cls-1" x="225.61" y="101.73" width="11.16" height="11.16" transform="translate(338.5 -123.88) rotate(90)"/><rect class="cls-1" x="236.22" y="90.51" width="11.16" height="11.16" transform="translate(337.89 -145.71) rotate(90)"/><rect class="cls-1" x="178.12" y="115.58" width="11.16" height="44.66" transform="translate(321.61 -45.78) rotate(90)"/><rect class="cls-1" x="240.68" y="96.31" width="11.16" height="41.53" transform="translate(363.34 -129.18) rotate(90)"/><rect class="cls-1" x="194.02" y="96.31" width="11.16" height="41.53" transform="translate(316.67 -82.52) rotate(90)"/><rect class="cls-1" x="152.68" y="84.98" width="11.16" height="41.53" transform="translate(264.01 -52.52) rotate(90)"/><rect class="cls-1" x="171.38" y="89.07" width="12.38" height="75.34" transform="translate(304.31 -50.82) rotate(90)"/><rect class="cls-1" x="161.51" y="167.71" width="11.16" height="33.61" transform="translate(351.61 17.42) rotate(90)"/><rect class="cls-1" x="206" y="88.97" width="11.16" height="168.68" transform="translate(384.89 -38.27) rotate(90)"/><rect class="cls-1" x="185.33" y="118.23" width="12.22" height="86.69" transform="translate(353.01 -29.86) rotate(90)"/><rect class="cls-1" x="197.61" y="130.51" width="12.22" height="38.79" transform="translate(353.63 -53.81) rotate(90)"/><rect class="cls-1" x="130.71" y="97.34" width="11.16" height="37.38" transform="translate(252.31 -20.26) rotate(90)"/><rect class="cls-1" x="246.44" y="155.66" width="11.92" height="11.7" transform="translate(413.91 -90.89) rotate(90)"/><rect class="cls-1" x="237.82" y="119.79" width="11.16" height="10.55" transform="translate(486.8 250.13) rotate(-180)"/><rect class="cls-1" x="106.7" y="132.68" width="11.16" height="10.55" transform="translate(224.55 275.91) rotate(-180)"/><rect class="cls-1" x="81.95" y="143.04" width="35.61" height="11.85" transform="translate(199.5 297.94) rotate(-180)"/><rect class="cls-1" x="271.42" y="139.71" width="11.16" height="10.55" transform="translate(554 289.98) rotate(-180)"/><rect class="cls-1" x="220.5" y="106.1" width="11.16" height="10.55" transform="translate(452.17 222.74) rotate(-180)"/><rect class="cls-1" x="313.37" y="167.72" width="11.16" height="10.55" transform="translate(491.94 -145.95) rotate(90)"/><circle class="cls-2" cx="189.53" cy="161.97" r="127.73"/><path class="cls-3" d="M186.07,151.35c-12.34-16.09-20.84-31.69-25.34-46.46-1.1,1.15-7.89,7.3-9.94,22-.06.86-.14,1.72-.14,2.59,0,7,2.82,13.58,5.27,18.5,0,0,0,0,0,.07l0,.07a117.8,117.8,0,0,0,13.24,22.42C175.43,164,181.07,157.63,186.07,151.35Z"/><path class="cls-3" d="M189.51,87.35a44.9,44.9,0,0,1,35.83,17.5c-4.07-16.57-13.58-35.21-35.83-35.21s-31.77,18.64-35.83,35.21A44.91,44.91,0,0,1,189.51,87.35Z"/><path class="cls-3" d="M193.19,198.55c14.34,14.85,31.07,30,47.35,44.29l7.65-29.91a479.63,479.63,0,0,1-38-34.2C205.12,185.29,199.41,191.91,193.19,198.55Z"/><path class="cls-3" d="M222.89,148s0-.05,0-.08c3.27-6.53,5.45-12.17,5.45-18.41a35.45,35.45,0,0,0-10.08-24.6q-6.91,22.66-26.37,47.7a2.65,2.65,0,0,1-.66.87,293.4,293.4,0,0,1-20.33,23.1,2.51,2.51,0,0,1-.35.39l-.09,0a467,467,0,0,1-39.67,35.95l7.65,29.91c17.3-15.21,34.46-30.78,49.09-46.18l0,0,0,0c15.76-16.61,28.56-33,35.24-48.57Z"/><path class="cls-4" d="M252.93,209.82A476.34,476.34,0,0,1,213.5,174.4a126.63,126.63,0,0,0,14.23-24.09h0c3.13-6.25,6-13.1,6-20.82,0-6.68-1.24-65.23-44.25-65.23s-44.26,58.56-44.26,65.23c0,8.25,3.33,15.88,5.84,20.9h0a124.54,124.54,0,0,0,14.32,24.09,471.17,471.17,0,0,1-39.33,35.35,2.7,2.7,0,0,0-.92,2.77l9.17,35.84a2.7,2.7,0,0,0,4.39,1.36c17.72-15.53,35.46-31.47,50.74-47.34,15.41,15.94,33.49,32.15,50.82,47.34a2.7,2.7,0,0,0,4.39-1.36l9.17-35.84A2.7,2.7,0,0,0,252.93,209.82ZM189.51,69.64c22.25,0,31.76,18.64,35.83,35.21a45.43,45.43,0,0,0-71.66,0C157.74,88.28,167.25,69.64,189.51,69.64Zm24.32,31.24q-6,21.76-24.35,46c-12.14-16.06-20.32-31.52-24.3-46a40.46,40.46,0,0,1,48.65,0ZM156,148.11l0-.07s0,0,0-.07c-2.45-4.92-5.27-11.46-5.27-18.5,0-.88.08-1.73.14-2.59,2.05-14.7,8.85-20.85,9.94-22,4.5,14.77,13,30.37,25.34,46.46-5,6.28-10.64,12.68-16.85,19.18A117.8,117.8,0,0,1,156,148.11Zm31.63,48.49,0,0,0,0c-14.62,15.4-31.79,31-49.09,46.18l-7.65-29.91A467,467,0,0,0,170.49,177l.09,0a2.51,2.51,0,0,0,.35-.39,293.4,293.4,0,0,0,20.33-23.1,2.65,2.65,0,0,0,.66-.87q19.43-25,26.37-47.7a35.45,35.45,0,0,1,10.08,24.6c0,6.24-2.18,11.87-5.45,18.41,0,0,0,.05,0,.08l0,.06C216.17,163.58,203.37,180,187.61,196.6Zm52.93,46.23c-16.29-14.32-33-29.44-47.35-44.29,6.22-6.64,11.94-13.26,17-19.82a479.63,479.63,0,0,0,38,34.2Z"/><path class="cls-5" d="M67.82,70.39a45,45,0,0,0-13.11,1.91A36.64,36.64,0,0,0,44,77.48a25.57,25.57,0,0,0-7.22,7.65,18,18,0,0,0-2.64,9.27c0,.15,0,.52,0,.71s.3.47.69.47h66c.38,0,.68-.24.69-.46v-.73C101.51,81.15,86.4,70.39,67.82,70.39ZM54,88.47a1.61,1.61,0,0,1-2.21-.59l-2.37-4.1a1.62,1.62,0,0,1,2.8-1.62l2.37,4.1A1.62,1.62,0,0,1,54,88.47Zm5.49-6.4a1.61,1.61,0,0,1-2.21-.59l-2.37-4.1a1.62,1.62,0,0,1,2.8-1.62l2.37,4.1A1.62,1.62,0,0,1,59.5,82.07Zm10.32,8.45a1.61,1.61,0,0,1-2.21-.59l-2.37-4.1A1.62,1.62,0,1,1,68,84.21l2.37,4.1A1.62,1.62,0,0,1,69.81,90.53ZM74.15,80a1.61,1.61,0,0,1-2.21-.59l-2.37-4.1a1.62,1.62,0,1,1,2.8-1.62l2.37,4.1A1.62,1.62,0,0,1,74.15,80Zm8.19,9.75a1.61,1.61,0,0,1-2.21-.59l-2.37-4.1a1.62,1.62,0,1,1,2.8-1.62l2.37,4.1A1.61,1.61,0,0,1,82.33,89.76Zm7.11-5.64a1.61,1.61,0,0,1-2.21-.59l-2.37-4.1a1.62,1.62,0,1,1,2.8-1.62L90,81.92A1.62,1.62,0,0,1,89.44,84.12Z"/><path class="cls-5" d="M100,116.77H35.52c-.16,0-.55.52-.55,1v4.67c0,2.51,1.56,4.48,3.54,4.48H97.06c2,0,3.61-2,3.61-4.48v-4.67C100.67,117.31,100.25,116.77,100,116.77Z"/><path class="cls-3" d="M95.84,109.37c1.84,0,3.35-1.22,3.35-2.71v-.55A3.42,3.42,0,0,0,95.84,103h-11L79,108.18a2.74,2.74,0,0,1-3.62-.12L70,103H39.64a3.25,3.25,0,0,0-3.19,3.14v.55a2.91,2.91,0,0,0,3.19,2.71Z"/><path class="cls-6" d="M95.84,112.6c3.63,0,6.58-2.67,6.58-5.95v-.55a6.64,6.64,0,0,0-6.58-6.37H83.57l-6.32,5.66-6-5.66H39.64a6.48,6.48,0,0,0-6.42,6.37v.55a6.13,6.13,0,0,0,6.42,5.95Zm-59.39-5.95v-.55A3.25,3.25,0,0,1,39.64,103H70l5.4,5.09a2.74,2.74,0,0,0,3.62.12L84.8,103h11a3.42,3.42,0,0,1,3.35,3.14v.55c0,1.5-1.5,2.71-3.35,2.71H39.64A2.91,2.91,0,0,1,36.46,106.66Z"/><path class="cls-7" d="M100,113.54H35.52c-2.23,0-3.78,2.21-3.78,4.2v4.67c0,4.32,3,7.71,6.78,7.71H97.06c3.84,0,6.84-3.39,6.84-7.71v-4.67C103.9,115.76,102.25,113.54,100,113.54Zm.62,8.86c0,2.51-1.59,4.48-3.61,4.48H38.52c-2,0-3.54-2-3.54-4.48v-4.67c0-.45.39-1,.55-1H100c.2,0,.62.54.62,1Z"/><path class="cls-7" d="M67.82,67.16a48.22,48.22,0,0,0-14.05,2,39.86,39.86,0,0,0-11.66,5.65A28.76,28.76,0,0,0,34,83.47a21.16,21.16,0,0,0-3.09,10.92c0,.17,0,.59,0,.8a3.84,3.84,0,0,0,3.91,3.61h66a3.85,3.85,0,0,0,3.92-3.65v-.78C104.74,79.37,88.18,67.16,67.82,67.16ZM101.5,95.11c0,.22-.3.46-.69.46h-66c-.38,0-.68-.24-.69-.47s0-.56,0-.71a18,18,0,0,1,2.64-9.27A25.57,25.57,0,0,1,44,77.48a36.64,36.64,0,0,1,10.72-5.19,45,45,0,0,1,13.11-1.91c18.57,0,33.68,10.76,33.68,24Z"/><path class="cls-6" d="M57.72,75.76a1.62,1.62,0,0,0-2.8,1.62l2.37,4.1a1.62,1.62,0,1,0,2.8-1.62Z"/><path class="cls-6" d="M52.23,82.16a1.62,1.62,0,0,0-2.8,1.62l2.37,4.1a1.62,1.62,0,1,0,2.8-1.62Z"/><path class="cls-6" d="M68,84.21a1.62,1.62,0,1,0-2.8,1.62l2.37,4.1a1.62,1.62,0,1,0,2.8-1.62Z"/><path class="cls-6" d="M72.37,73.71a1.62,1.62,0,1,0-2.8,1.62l2.37,4.1a1.62,1.62,0,1,0,2.8-1.62Z"/><path class="cls-6" d="M80.55,83.45a1.62,1.62,0,1,0-2.8,1.62l2.37,4.1a1.62,1.62,0,0,0,2.8-1.62Z"/><path class="cls-6" d="M87.66,77.81a1.62,1.62,0,1,0-2.8,1.62l2.37,4.1A1.62,1.62,0,1,0,90,81.92Z"/><path class="cls-8" d="M100,116.77h-5.2v10.11h2.21c2,0,3.61-2,3.61-4.48v-4.67C100.67,117.31,100.25,116.77,100,116.77Zm-5.2-36.7v15.5h6c.38,0,.68-.25.69-.46v-.73C101.51,89,99,84.07,94.85,80.07Z"/><path class="cls-7" d="M67.82,67.16a48.22,48.22,0,0,0-14.05,2,39.86,39.86,0,0,0-11.66,5.65A28.76,28.76,0,0,0,34,83.47a21.16,21.16,0,0,0-3.09,10.92c0,.17,0,.59,0,.8a3.84,3.84,0,0,0,3.91,3.61h66a3.85,3.85,0,0,0,3.92-3.65v-.78C104.74,79.37,88.18,67.16,67.82,67.16ZM101.5,95.11c0,.22-.3.46-.69.46h-66c-.38,0-.68-.24-.69-.47s0-.56,0-.71a18,18,0,0,1,2.64-9.27A25.57,25.57,0,0,1,44,77.48a36.64,36.64,0,0,1,10.72-5.19,45,45,0,0,1,13.11-1.91c18.57,0,33.68,10.76,33.68,24Z"/><path class="cls-7" d="M100,113.54H35.52c-2.23,0-3.78,2.21-3.78,4.2v4.67c0,4.32,3,7.71,6.78,7.71H97.06c3.84,0,6.84-3.39,6.84-7.71v-4.67C103.9,115.76,102.25,113.54,100,113.54Zm.62,8.86c0,2.51-1.59,4.48-3.61,4.48H38.52c-2,0-3.54-2-3.54-4.48v-4.67c0-.45.39-1,.55-1H100c.2,0,.62.54.62,1Z"/><rect class="cls-7" x="-1.47" y="-0.03" width="370.19" height="325.3"/><polygon class="cls-3" points="35.04 190.71 35.31 158.77 52.2 158.77 53.26 146.36 62.76 146.36 62.76 157.98 99.98 159.3 100.61 190.88 35.04 190.71"/><rect class="cls-5" x="55.38" y="171.18" width="5.86" height="9.21"/><rect class="cls-5" x="37.42" y="191.32" width="64.01" height="58.55"/><polygon class="cls-8" points="36.97 190.43 36.97 201.03 66.88 217.09 98.08 201.03 101.43 191.32 36.97 190.43"/><path class="cls-6" d="M99.75,156.94H64.59V146.06a1.68,1.68,0,0,0-1.67-1.67H53.71A1.68,1.68,0,0,0,52,146.06v10.88H35.29a1.68,1.68,0,0,0-1.67,1.67v91.25a1.68,1.68,0,0,0,1.67,1.67H99.75a1.68,1.68,0,0,0,1.67-1.67V158.62A1.68,1.68,0,0,0,99.75,156.94ZM98.08,248.2H37V204.66l29.91,12.43a1.68,1.68,0,0,0,1.29,0l29.91-12.43ZM37,160.29h5.86v5.09a6.33,6.33,0,0,0-4.19-1.74H37ZM98.08,201l-30.56,12.7L37,201v-7.25H98.08ZM37,190.43V167h1.67a3.14,3.14,0,0,1,2.71,2l1.48,4.93,1.62,5.4s0,.09.05.13A6.07,6.07,0,0,0,46.18,182a6.33,6.33,0,0,0,4.19,1.74H84.69A6.33,6.33,0,0,0,88.87,182a6.07,6.07,0,0,0,1.67-2.52s0-.09.05-.14l1.62-5.4L93.7,169a3.14,3.14,0,0,1,2.71-2h1.67v23.44Zm18.42-19.25h5.86v9.21H55.38Zm42.7-7.53H96.41a6.33,6.33,0,0,0-4.19,1.74v-5.09h5.86Zm-9.21,9.8-1.48,4.93a3.14,3.14,0,0,1-2.71,2H83V160.29h5.86Zm-9.21,6.94H73.8V160.29h5.86Zm-9.21,0H64.59V160.29h5.86ZM55.38,147.73h5.86v20.09H55.38ZM52,180.38H50.36a3.14,3.14,0,0,1-2.71-2l-1.48-4.93V160.29H52Z"/><path class="cls-5" d="M67.67,213.84l34.19-14.7v50.57a2.36,2.36,0,0,1-2.35,2.36h-64a2.36,2.36,0,0,1-2.35-2.36V199.41Z"/><ellipse class="cls-9" cx="115.84" cy="269.06" rx="9.17" ry="15.5"/><line class="cls-9" x1="116.01" y1="269.06" x2="116.01" y2="293.22"/><path class="cls-9" d="M270.25,299.56a6.47,6.47,0,0,0-6.31-8,9.46,9.46,0,0,0-5.26,1.52c-1.15-3.29-4.47-5.2-8.4-5.2-4.88,0-10.83,4-10.83,8.83a6.45,6.45,0,0,0,.69,2.84Z"/><path class="cls-9" d="M106.52,299.56a6.47,6.47,0,0,1,6.31-8,9.46,9.46,0,0,1,5.26,1.52c1.15-3.29,4.47-5.2,8.4-5.2,4.88,0,10.83,4,10.83,8.83a6.45,6.45,0,0,1-.69,2.84Z"/><polygon class="cls-3" points="144.06 301.29 144.06 268.21 177.4 250.63 203.03 250.63 238.04 269.11 240.14 299.56 144.06 301.29"/><path class="cls-10" d="M203.57,249.2l-.17-.09H177l-32.93,19.1v33.07h95.5V268.19ZM208,298.66l-14.55-7.81L208,283Zm-1.13,1.11h-30l15-8.07Zm-15-9.79-13.89-7.46H205.7Zm-16.15-7,14.55,7.81-14.55,7.81ZM238,299.77H208.48V281H175.15v18.76H145.58V269.09l31.82-18.46H203l35,18.48Z"/><path class="cls-11" d="M227.08,273.26H216.15v19h10.93Zm-1.52,17.5h-7.9v-16h7.9Z"/><path class="cls-11" d="M155.76,292.27H166.7v-19H155.76Zm1.52-17.5h7.9v16h-7.9Z"/><path class="cls-12" d="M200.36,269.15h7.71V258.38h-7.71Zm1.52-9.25h4.67v7.74h-4.67Z"/><path class="cls-12" d="M186.68,269.15h7.71V258.38h-7.71Zm1.52-9.25h4.68v7.74H188.2Z"/><path class="cls-12" d="M173,269.15h7.71V258.38H173Zm1.52-9.25h4.68v7.74h-4.68Z"/><rect class="cls-5" x="172.66" y="273.64" width="36.15" height="25.2"/><rect class="cls-8" x="190.56" y="271.49" width="2.08" height="38.92" transform="translate(45.05 606.99) rotate(-121.76)"/><rect class="cls-8" x="189.56" y="271.49" width="2.08" height="38.92" transform="translate(-157.11 299.88) rotate(-58.24)"/><polyline class="cls-13" points="172.66 299.84 172.66 274.64 208.81 274.64 208.81 300.29"/><line class="cls-13" x1="172.66" y1="277.64" x2="208.48" y2="299.28"/><line class="cls-13" x1="208.48" y1="278.01" x2="173.48" y2="298.95"/><line class="cls-14" x1="189.73" y1="275.5" x2="189.73" y2="300.24"/><line class="cls-14" x1="191.74" y1="275.5" x2="191.74" y2="300.24"/><path class="cls-3" d="M92.84,291.57a9.46,9.46,0,0,0-5.26,1.52c-1.15-3.29-4.47-5.2-8.4-5.2-4.29,0-9.42,3.07-10.59,7.13a15.88,15.88,0,0,0-7.69-1.77c-5.11,0-10.34,3.29-10.34,6.13H99.15a5,5,0,0,0,.18-1.31A6.49,6.49,0,0,0,92.84,291.57Z"/><path class="cls-15" d="M92.84,291.57a9.46,9.46,0,0,0-5.26,1.52c-1.15-3.29-4.47-5.2-8.4-5.2-4.29,0-9.42,3.07-10.59,7.13a15.88,15.88,0,0,0-7.69-1.77c-5.11,0-10.34,3.29-10.34,6.13H99.15a5,5,0,0,0,.18-1.31A6.49,6.49,0,0,0,92.84,291.57Z"/><rect class="cls-5" x="275.57" y="211.12" width="32.5" height="89.88"/><rect class="cls-3" x="281.49" y="217.77" width="6.91" height="10.04"/><rect class="cls-3" x="281.49" y="233.04" width="6.91" height="10.04"/><rect class="cls-3" x="281.49" y="248.32" width="6.91" height="10.04"/><rect class="cls-3" x="281.49" y="263.59" width="6.91" height="10.04"/><rect class="cls-3" x="294.66" y="217.77" width="6.91" height="10.04"/><rect class="cls-3" x="294.66" y="233.04" width="6.91" height="10.04"/><rect class="cls-3" x="294.66" y="248.32" width="6.91" height="10.04"/><rect class="cls-3" x="294.66" y="263.59" width="6.91" height="10.04"/><path class="cls-5" d="M329.32,271.57v-1.34h-2.69v0h2.67v1.34a2.58,2.58,0,0,0,2.26,2.62v0A2.58,2.58,0,0,1,329.32,271.57Z"/><polygon class="cls-5" points="317.28 277.08 317.27 277.08 317.27 281.75 314.58 281.75 314.58 281.76 317.28 281.76 317.28 277.08"/><path class="cls-5" d="M324.15,277.2v.06h0v-.08Z"/><path class="cls-5" d="M323.3,276.29l-.21-.28Z"/><path class="cls-5" d="M322.71,275.48c-.13-.19-.25-.39-.37-.59C322.46,275.09,322.58,275.28,322.71,275.48Z"/><path class="cls-5" d="M334.27,274.13V268.4h-2.69v0h2.67v5.72a2.64,2.64,0,0,0,1.7-1.32A2.64,2.64,0,0,1,334.27,274.13Z"/><path class="cls-5" d="M339,271.57v-1.34h-2.69v0h2.67v1.34a5.33,5.33,0,0,1-4.7,5.28A5.33,5.33,0,0,0,339,271.57Z"/><path class="cls-5" d="M305.23,286.8h0c2.67,0,5.36.32,7.14,2.5h0C310.6,287.12,307.9,286.8,305.23,286.8Z"/><path class="cls-5" d="M322.25,274.72a12.21,12.21,0,1,1,12.27,6.15,12.22,12.22,0,0,0-1.61-24.38l0,0a12.2,12.2,0,0,0-10.65,18.21Z"/><path class="cls-5" d="M314.6,289.17a10.68,10.68,0,0,1,6.14,2.31h0A10.68,10.68,0,0,0,314.6,289.17Z"/><rect class="cls-5" x="317.27" y="259.76" width="0.02" height="4.67"/><rect class="cls-5" x="317.27" y="268.52" width="0.02" height="4.67"/><rect class="cls-5" x="317.27" y="248.18" width="0.02" height="7.72"/><path class="cls-5" d="M296.91,284.62V244.95h0v39.67a10.68,10.68,0,0,1,3.86,3.34h0A10.68,10.68,0,0,0,296.91,284.62Z"/><path class="cls-5" d="M322,294.17a6.31,6.31,0,0,1,3.45-2.49h0a6.39,6.39,0,0,1,2.39-.21,6.37,6.37,0,0,0-6,2.7l-.89,1.28.08.08Z"/><path class="cls-5" d="M311.27,292.37l.15-.11.4-.12a8,8,0,0,1,2.13-.33,8,8,0,0,0-2.23.33l-.4.12-.15.11a7.63,7.63,0,0,0-5.13,6.87h0A7.63,7.63,0,0,1,311.27,292.37Z"/><path class="cls-5" d="M309.4,290.26l0,0a10.31,10.31,0,0,0-6,9h-27v0h27A10.31,10.31,0,0,1,309.4,290.26Z"/><path class="cls-5" d="M284.47,291.18l0,0Z"/><path class="cls-5" d="M284.81,290.44v0Z"/><path class="cls-3" d="M345,267.43a12.21,12.21,0,1,0-22.79,7.28l.1.17c.12.2.24.4.37.59s.25.36.38.54l.21.28c.24.3.49.59.76.88h.09v0h0v.08a12.21,12.21,0,0,0,7.4,3.6v-4a5.25,5.25,0,0,1-4.94-5.26v-1.34h0v0h2.69v1.34a2.58,2.58,0,0,0,2.24,2.62v-5.75h0v0h2.69v5.74a2.6,2.6,0,0,0,2-2.53v-1.34h0v0H339v1.34a5.33,5.33,0,0,1-4.71,5.31v4l.27,0A12.2,12.2,0,0,0,345,267.43Z"/><path class="cls-3" d="M296.91,284.62a10.68,10.68,0,0,1,3.86,3.34,9.16,9.16,0,0,1,4.44-1.15h0c2.67,0,5.37.32,7.15,2.5a10.7,10.7,0,0,1,8.37,2.18,9.07,9.07,0,0,1,.71-.65v-12.5a14.86,14.86,0,0,1,0-19.12V244.93l-24.55,0Zm17.67-36.44h2.7v7.72h-2.7Zm0,11.58h2.7v4.67h-2.7Zm0,8.76h2.7v4.67h-2.7Zm0,13.23v-4.67h2.7v4.68h-2.7Zm-6.73-33.57h2.69v7.72h-2.69Zm0,16.23v-4.65h2.69v4.67h-2.69Zm0,8.76v-4.65h2.69v4.67h-2.69Zm0,3.91h2.69v4.67h-2.69Zm-6.74-28.9h2.69v7.72h-2.69Zm0,16.23v-4.65h2.69v4.67h-2.69Zm0,8.76v-4.65h2.69v4.67h-2.69Zm0,3.91h2.69v4.67h-2.69Z"/><path class="cls-3" d="M309.36,290.25a8.47,8.47,0,0,0-4.14-.73,6.32,6.32,0,0,0-4,1.42l-1.28,1-.76-1.53a8.07,8.07,0,0,0-14.33,0v0q-.17.34-.32.7l0,0a8.1,8.1,0,0,0-.44,1.53l-.2,1.13h-1.27a6.59,6.59,0,0,0-6.25,5.36h27A10.31,10.31,0,0,1,309.36,290.25Z"/><path class="cls-3" d="M333.47,299.19a6.1,6.1,0,0,0-.2-3.19,6.26,6.26,0,0,0-7.78-4.33h0a6.31,6.31,0,0,0-3.45,2.49l-.93,1.34-.08-.08,0,.07-1.13-1.19a7.91,7.91,0,0,0-8-2.17l-.4.12-.15.11a7.63,7.63,0,0,0-5.22,6.87h27.46Z"/><polygon class="cls-4" points="310.54 259.76 307.85 259.76 307.85 264.42 310.52 264.42 310.54 259.76"/><polygon class="cls-4" points="310.54 259.76 310.52 264.42 307.85 264.42 307.85 264.43 310.54 264.43 310.54 259.76"/><rect class="cls-4" x="314.58" y="248.18" width="2.69" height="7.72"/><rect class="cls-4" x="301.11" y="259.76" width="2.69" height="4.65"/><rect class="cls-4" x="301.11" y="264.41" width="2.69" height="0.02"/><polygon class="cls-4" points="310.54 268.52 307.85 268.52 307.85 273.17 310.52 273.17 310.54 268.52"/><polygon class="cls-4" points="310.54 268.52 310.52 273.17 307.85 273.17 307.85 273.19 310.54 273.19 310.54 268.52"/><rect class="cls-4" x="301.11" y="268.52" width="2.69" height="4.65"/><rect class="cls-4" x="301.11" y="273.17" width="2.69" height="0.02"/><rect class="cls-4" x="301.11" y="277.08" width="2.69" height="4.67"/><rect class="cls-4" x="307.85" y="248.18" width="2.69" height="7.72"/><polygon class="cls-4" points="310.54 277.08 307.85 277.08 307.85 281.75 310.52 281.75 310.54 277.08"/><polygon class="cls-4" points="310.54 281.75 310.54 277.08 310.52 281.75 310.54 281.75"/><polygon class="cls-12" points="238.08 299.23 35.57 299.23 35.57 301.92 303.55 301.92 304.82 301.92 347.8 301.92 347.8 300.98 238.08 300.98 238.08 299.23"/><path class="cls-16" d="M336.2,299.25a8.7,8.7,0,0,0-.24-4.06,9,9,0,0,0-1.72-3.23v-8.35a14.91,14.91,0,1,0-10.09-26.9V242.24H294.23v41.43a10.73,10.73,0,0,0-12.57,7.55c-6.15.58-7.88,6.74-8.07,8H238.08V301H347.8v-1.73Zm-11.79-39.34a12.21,12.21,0,0,1,8.48-3.4l0,0a12.22,12.22,0,0,1,1.61,24.38l-.27,0v-4a5.33,5.33,0,0,0,4.7-5.28v-1.34h-2.67v1.31a2.69,2.69,0,0,1-2,2.59v-5.72h-2.67v5.75h0v0a2.58,2.58,0,0,1-2.26-2.62v-1.34h-2.67v1.3a5.25,5.25,0,0,0,4.94,5.31v4a12.2,12.2,0,0,1-7.42-3.62v0h0v-.06h-.08c-.28-.29-.53-.6-.78-.91l-.21-.28c-.13-.18-.26-.35-.38-.54s-.25-.39-.37-.59l-.1-.17A12.2,12.2,0,0,1,324.41,259.91Zm7.15,23.64v6.29a9,9,0,0,0-6.87-.73l-.55.18v-8.45a14.83,14.83,0,0,0,7.42,2.78Zm-10.1-38.62h0v14.28a14.86,14.86,0,0,0,0,19.12v12.5a9.16,9.16,0,0,0-.72.66h0a10.65,10.65,0,0,0-8.36-2.18h0c-1.78-2.18-4.48-2.5-7.14-2.5a9.16,9.16,0,0,0-4.45,1.16h0a10.68,10.68,0,0,0-3.86-3.34V244.95h0v0Zm-18.08,54.3,0,0v0h-27v0h0a6.59,6.59,0,0,1,6.26-5.39h1.27l.2-1.13a8,8,0,0,1,.44-1.5l0,0c.09-.24.2-.47.32-.7v0a8.06,8.06,0,0,1,14.33,0l.76,1.53,1.28-1a6.32,6.32,0,0,1,4-1.42,8.47,8.47,0,0,1,4.23.72l-.09,0,0,0a10.31,10.31,0,0,0-6.06,9Zm30.13,0H306.05v0h0a7.63,7.63,0,0,1,5.13-6.87l.15-.11.4-.12a8.26,8.26,0,0,1,8.22,2.18l1.05,1.11.89-1.28a6.37,6.37,0,0,1,6-2.7,6.41,6.41,0,0,1,5.54,4.6A6.1,6.1,0,0,1,333.52,299.25Z"/><path class="cls-12" d="M303.38,299.23h0Z"/><path class="cls-12" d="M324.7,289l-.55.18v.08l.55-.18a9,9,0,0,1,6.87.73v-.08A9,9,0,0,0,324.7,289Z"/><path class="cls-12" d="M324.06,277.17c-.27-.28-.52-.58-.76-.88.24.31.5.62.78.91h.08v0Z"/><path class="cls-12" d="M331.56,274.19h0v-5.75h0Z"/><path class="cls-12" d="M334.25,280.91l.27,0-.27,0Z"/><path class="cls-12" d="M322.34,274.89l-.1-.17Z"/><path class="cls-12" d="M323.09,276c-.13-.18-.26-.35-.38-.54C322.83,275.66,323,275.84,323.09,276Z"/><path class="cls-12" d="M326.62,271.62a5.25,5.25,0,0,0,4.94,5.26v4a12.21,12.21,0,0,1-7.4-3.6v0a12.2,12.2,0,0,0,7.42,3.62v-4a5.25,5.25,0,0,1-4.94-5.31v-1.3h0Z"/><path class="cls-12" d="M336.26,271.6a2.63,2.63,0,0,1-.32,1.25,2.63,2.63,0,0,0,.33-1.28v-1.31h0Z"/><polygon class="cls-12" points="296.91 244.95 321.46 244.93 296.91 244.93 296.91 244.95"/><path class="cls-12" d="M321.46,278.33v12.5a9.07,9.07,0,0,0-.71.65h0a9.16,9.16,0,0,1,.72-.66v-12.5a14.86,14.86,0,0,1,0-19.12V244.93h0v14.28A14.86,14.86,0,0,0,321.46,278.33Z"/><path class="cls-12" d="M312.38,289.3h0a10.69,10.69,0,0,1,2.22-.13A10.7,10.7,0,0,0,312.38,289.3Z"/><path class="cls-12" d="M300.77,288h0a9.16,9.16,0,0,1,4.45-1.16h0A9.16,9.16,0,0,0,300.77,288Z"/><path class="cls-12" d="M293.4,286.2a8.07,8.07,0,0,1,5.75,4.25l.76,1.53,1.28-1a6.32,6.32,0,0,1,4-1.42,8.47,8.47,0,0,1,4.14.73l.09,0a8.47,8.47,0,0,0-4.23-.72,6.32,6.32,0,0,0-4,1.42l-1.28,1-.76-1.53a8.06,8.06,0,0,0-14.33,0A8.07,8.07,0,0,1,293.4,286.2Z"/><path class="cls-12" d="M282.57,293.85h1.27l.2-1.13a8.1,8.1,0,0,1,.44-1.53,8,8,0,0,0-.44,1.5l-.2,1.13h-1.27a6.59,6.59,0,0,0-6.26,5.39h0A6.59,6.59,0,0,1,282.57,293.85Z"/><path class="cls-12" d="M284.49,291.14q.14-.36.32-.7C284.69,290.67,284.58,290.9,284.49,291.14Z"/><path class="cls-12" d="M327.89,291.46a6.41,6.41,0,0,1,5.38,4.54,6.1,6.1,0,0,1,.2,3.19l0,0h0a6.1,6.1,0,0,0-.09-3.19A6.41,6.41,0,0,0,327.89,291.46Z"/><path class="cls-12" d="M321,295.5l0-.07L320,294.32a8.05,8.05,0,0,0-6-2.51,8.06,8.06,0,0,1,5.88,2.49Z"/><rect class="cls-4" x="314.58" y="277.08" width="2.69" height="4.67"/><rect class="cls-4" x="314.58" y="268.52" width="2.69" height="4.67"/><rect class="cls-4" x="314.58" y="259.76" width="2.69" height="4.67"/><rect class="cls-4" x="301.11" y="248.18" width="2.69" height="7.72"/><path class="cls-4" d="M346.56,129.71a11.79,11.79,0,1,0-14.11,11.56v13.84a18.24,18.24,0,0,1-36.48,0V134.2c18.41-2.09,26.64-28.92,28.63-45a50.53,50.53,0,0,0,.45-7.91c-.06-1.52-.2-4.68-2.6-5.28-2.21-.55-7-.54-10.63-.43a5.33,5.33,0,1,0,.2,4.63,69,69,0,0,1,8.34.14c.78,4.87-1.9,26.06-10.8,39.26-4.54,6.73-9.89,10.14-15.9,10.14s-11.36-3.41-15.9-10.14c-8.9-13.2-11.58-34.38-10.8-39.26a69,69,0,0,1,8.34-.14,5.33,5.33,0,1,0,.2-4.63c-3.68-.11-8.42-.12-10.63.43-2.4.6-2.54,3.76-2.6,5.28a50.53,50.53,0,0,0,.45,7.91c2,16.11,10.22,42.94,28.63,45v20.91a22.87,22.87,0,0,0,45.74,0V141.27A11.81,11.81,0,0,0,346.56,129.71Z"/><circle class="cls-3" cx="280.23" cy="78.05" r="2"/><circle class="cls-3" cx="306.89" cy="78.05" r="2"/><circle class="cls-8" cx="334.88" cy="129.65" r="11.96"/><circle class="cls-5" cx="334.88" cy="129.65" r="6.72"/><path class="cls-17" d="M296.08,134.2C307.9,132.86,315.52,121.31,320,109l-4.16-2.08a56.6,56.6,0,0,1-6.16,12.68c-4.54,6.73-9.89,10.14-15.9,10.14s-11.36-3.41-15.9-10.14a56.8,56.8,0,0,1-6.22-12.85l-4.4,1.44c4.43,12.66,12.13,24.68,24.2,26.05Z"/><rect class="cls-17" x="290.23" y="130.41" width="7" height="23"/></svg>