<?xml version="1.0" encoding="UTF-8" standalone="no"?>
<svg
   id="Layer_1"
   data-name="Layer 1"
   viewBox="0 0 364.44495 98.735001"
   version="1.1"
   sodipodi:docname="view_local_stats_1.svg"
   width="364.44495"
   height="98.735001"
   inkscape:version="1.3.2 (091e20e, 2023-11-25, custom)"
   xmlns:inkscape="http://www.inkscape.org/namespaces/inkscape"
   xmlns:sodipodi="http://sodipodi.sourceforge.net/DTD/sodipodi-0.dtd"
   xmlns="http://www.w3.org/2000/svg"
   xmlns:svg="http://www.w3.org/2000/svg"
   xmlns:rdf="http://www.w3.org/1999/02/22-rdf-syntax-ns#"
   xmlns:cc="http://creativecommons.org/ns#"
   xmlns:dc="http://purl.org/dc/elements/1.1/">
  <sodipodi:namedview
     id="namedview31"
     pagecolor="#000000"
     bordercolor="#000000"
     borderopacity="0.25"
     inkscape:showpageshadow="2"
     inkscape:pageopacity="0.0"
     inkscape:pagecheckerboard="0"
     inkscape:deskcolor="#d1d1d1"
     inkscape:zoom="2.9526759"
     inkscape:cx="188.64245"
     inkscape:cy="-12.869682"
     inkscape:window-width="1709"
     inkscape:window-height="1356"
     inkscape:window-x="1716"
     inkscape:window-y="6"
     inkscape:window-maximized="0"
     inkscape:current-layer="Layer_1" />
  <defs
     id="defs1">
    <style
       id="style1">.cls-1,.cls-5,.cls-6,.cls-7{fill:none;}.cls-2,.cls-3{fill:#fff;}.cls-3,.cls-5,.cls-6,.cls-7{stroke:#fff;stroke-miterlimit:10;}.cls-3{stroke-width:0.76px;}.cls-4{isolation:isolate;}.cls-5{stroke-width:3.5px;}.cls-6{stroke-width:3px;}.cls-7{stroke-width:2px;}</style>
  </defs>
  <title
     id="title1">icon-view-local-stats</title>
  <path
     class="cls-1"
     d="m 113.74862,84.529385 0.59127,-0.193505 a 9.6752444,9.6752444 0 0 1 7.38543,0.78477 v -6.686669 a 15.942653,15.942653 0 0 1 -7.9767,-2.988575 z"
     id="path1"
     style="stroke-width:1.07503" />
  <path
     class="cls-1"
     d="m 113.67337,71.521557 h 0.0968 v 0.09675 a 13.126082,13.126082 0 0 0 7.97671,3.891598 v -4.300108 a 5.6438926,5.6438926 0 0 1 -5.31064,-5.708394 v -1.505039 h 2.87032 v 1.440537 a 2.7735701,2.7735701 0 0 0 2.42956,2.859572 v -6.235157 h 2.89183 v 6.235157 a 2.8380717,2.8380717 0 0 0 2.15005,-2.752069 v -1.54804 h 2.89183 v 1.440537 a 5.7298947,5.7298947 0 0 1 -5.06338,5.708394 v 4.300109 a 13.126082,13.126082 0 1 0 -10.93303,-3.923849 z"
     id="path2"
     style="stroke-width:1.07503" />
  <path
     class="cls-1"
     d="m 84.475634,79.509008 a 11.48129,11.48129 0 0 1 4.149605,3.590591 9.8364985,9.8364985 0 0 1 4.794621,-1.247031 c 2.870322,0 5.772896,0.344008 7.69719,2.687567 a 11.48129,11.48129 0 0 1 9.00873,2.34356 9.8472487,9.8472487 0 0 1 0.77402,-0.709518 V 72.757838 a 15.974904,15.974904 0 0 1 0,-20.554519 V 36.851931 H 84.475634 Z m 21.930556,-3.063827 h -2.90258 v -5.031127 h 2.90258 z m 0,-9.223733 h -2.90258 v -5.009627 h 2.90258 z m 0,-9.417238 h -2.90258 v -5.009626 h 2.90258 z m -2.93483,-17.458441 h 2.93483 v 8.29921 h -2.90258 z m -4.364607,36.088662 h -2.870322 v -5.020377 h 2.891823 z m 0,-9.212983 h -2.870322 v -5.009627 h 2.891823 z m 0,-9.417238 h -2.870322 v -5.009626 h 2.891823 z M 96.236431,40.345769 h 2.891823 v 8.29921 h -2.891823 z m -4.36461,36.088662 h -2.891823 v -5.020377 h 2.891823 z m 0,-9.212983 h -2.891823 v -5.009627 h 2.891823 z m 0,-9.417238 h -2.891823 v -5.009626 h 2.891823 z M 88.979998,40.345769 h 2.891823 v 8.29921 h -2.891823 z"
     id="path3"
     style="stroke-width:1.07503" />
  <path
     class="cls-1"
     d="m 93.398359,84.744391 a 6.7941716,6.7941716 0 0 0 -4.300108,1.526538 l -1.376035,1.075027 -0.817021,-1.644791 a 8.6754691,8.6754691 0 0 0 -16.25441,2.440311 l -0.215006,1.214781 h -1.386785 a 7.0844289,7.0844289 0 0 0 -6.71892,5.815897 h 29.025734 a 11.08353,11.08353 0 0 1 6.557665,-9.675244 9.10548,9.10548 0 0 0 -4.515114,-0.752519 z"
     id="path4"
     style="stroke-width:1.07503" />
  <path
     class="cls-1"
     d="m 74.531633,70.607783 h 2.848822 v 5.020377 h -2.848822 z"
     id="path5"
     style="stroke-width:1.07503" />
  <path
     class="cls-1"
     d="m 115.15691,87.10945 a 6.7941716,6.7941716 0 0 0 -3.69809,2.687568 l -0.99978,1.440537 -1.21478,-1.279283 a 8.6647189,8.6647189 0 0 0 -8.75072,-2.311308 l -0.43001,0.129003 -0.161257,0.118253 v 0 a 8.2024572,8.2024572 0 0 0 -5.611641,7.396187 h 29.530998 a 6.5576656,6.5576656 0 0 0 -0.0968,-3.429337 6.8909241,6.8909241 0 0 0 -8.52497,-4.719369 z"
     id="path6"
     style="stroke-width:1.07503" />
  <rect
     class="cls-2"
     x="96.236435"
     y="52.794582"
     width="2.8918231"
     height="5.0203767"
     id="rect6"
     style="stroke-width:1.07503" />
  <rect
     class="cls-2"
     x="103.47137"
     y="40.345768"
     width="2.8918231"
     height="8.2992096"
     id="rect7"
     style="stroke-width:1.07503" />
  <rect
     class="cls-2"
     x="88.980003"
     y="52.794582"
     width="2.8918231"
     height="5.0203767"
     id="rect8"
     style="stroke-width:1.07503" />
  <rect
     class="cls-2"
     x="96.236435"
     y="62.211815"
     width="2.8918231"
     height="5.0203767"
     id="rect9"
     style="stroke-width:1.07503" />
  <rect
     class="cls-2"
     x="88.980003"
     y="62.211815"
     width="2.8918231"
     height="5.0203767"
     id="rect10"
     style="stroke-width:1.07503" />
  <rect
     class="cls-2"
     x="88.980003"
     y="71.414055"
     width="2.8918231"
     height="5.0203767"
     id="rect11"
     style="stroke-width:1.07503" />
  <rect
     class="cls-2"
     x="96.236435"
     y="40.345768"
     width="2.8918231"
     height="8.2992096"
     id="rect12"
     style="stroke-width:1.07503" />
  <rect
     class="cls-2"
     x="96.236435"
     y="71.414055"
     width="2.8918231"
     height="5.0203767"
     id="rect13"
     style="stroke-width:1.07503" />
  <path
     class="cls-3"
     d="m 126.44469,90.872045 a 9.6752444,9.6752444 0 0 0 -1.84904,-3.472337 V 78.433981 A 16.028655,16.028655 0 1 0 113.74862,49.515751 V 33.960108 H 91.173053 V 0.40851033 H 60.782035 V 52.171068 c 0,0 -0.129003,28.240963 0,28.197962 V 91.377308 A 10.255759,10.255759 0 0 0 59.3845,95.236656 H 0.40851033 v 2.891823 H 91.603064 v 0.150503 l 1.365284,-0.150503 H 364.03645 v -2.881073 h -237.323 a 9.3527362,9.3527362 0 0 0 -0.26876,-4.375361 z m -3.27883,-41.603551 a 13.140461,13.140461 0 0 1 1.44054,26.241413 v -4.300108 a 5.7298947,5.7298947 0 0 0 5.05263,-5.676144 v -1.451286 h -2.89183 v 1.440536 a 2.8380717,2.8380717 0 0 1 -2.15005,2.75207 v -6.149156 h -2.89183 v 6.235158 a 2.7735701,2.7735701 0 0 1 -2.41881,-2.827322 v -1.440536 h -2.90257 v 1.440536 a 5.6438926,5.6438926 0 0 0 5.31063,5.654643 v 4.300109 a 13.126082,13.126082 0 0 1 -7.9767,-3.891599 v -0.07525 h -0.0968 a 13.126082,13.126082 0 0 1 9.49249,-22.210061 z m -1.44054,29.100986 v 6.675918 a 9.6752444,9.6752444 0 0 0 -7.38543,-0.78477 l -0.59127,0.193505 v -9.008727 a 15.942653,15.942653 0 0 0 7.9767,2.988575 z M 110.86755,36.851931 v 15.319137 a 15.974904,15.974904 0 0 0 0,20.554519 v 13.437839 a 9.8472487,9.8472487 0 0 0 -0.77402,0.709518 11.48129,11.48129 0 0 0 -9.00873,-2.343559 c -1.924295,-2.343559 -4.826869,-2.687568 -7.697191,-2.687568 a 9.8364985,9.8364985 0 0 0 -4.794621,1.247032 11.48129,11.48129 0 0 0 -4.149605,-3.590591 V 36.862681 Z M 63.72761,79.132749 v 0 -25.617897 0 V 3.2895831 H 88.324231 V 33.960108 h -6.74042 v 44.538375 a 11.578042,11.578042 0 0 0 -13.513092,8.073454 9.4494887,9.4494887 0 0 0 -4.396861,1.644791 z M 91.431059,95.258156 H 62.330074 a 7.0844289,7.0844289 0 0 1 6.72967,-5.794396 h 1.365285 l 0.215005,-1.214781 a 8.6754691,8.6754691 0 0 1 16.254411,-2.440312 l 0.817021,1.644792 1.376034,-1.075027 a 6.7941716,6.7941716 0 0 1 4.300109,-1.526539 9.10548,9.10548 0 0 1 4.493613,0.806271 11.08353,11.08353 0 0 0 -6.514664,9.675244 z m 32.390571,0 H 94.301382 a 8.2024572,8.2024572 0 0 1 5.514889,-7.385436 v 0 l 0.161254,-0.118253 0.430015,-0.129004 a 8.6647189,8.6647189 0 0 1 8.70772,2.332809 l 1.21478,1.279283 0.99977,-1.440537 a 6.7941716,6.7941716 0 0 1 3.67659,-2.709068 6.8909241,6.8909241 0 0 1 8.60022,4.665618 6.5576656,6.5576656 0 0 1 0.21501,3.429336 z"
     id="path13" />
  <rect
     class="cls-2"
     x="103.47137"
     y="71.414055"
     width="2.8918231"
     height="5.0203767"
     id="rect15"
     style="stroke-width:1.07503" />
  <rect
     class="cls-2"
     x="103.47137"
     y="62.211815"
     width="2.8918231"
     height="5.0203767"
     id="rect16"
     style="stroke-width:1.07503" />
  <rect
     class="cls-2"
     x="103.47137"
     y="52.794582"
     width="2.8918231"
     height="5.0203767"
     id="rect17"
     style="stroke-width:1.07503" />
  <rect
     class="cls-2"
     x="67.887962"
     y="7.6541939"
     width="5.6438928"
     height="10.793273"
     id="rect18"
     style="stroke-width:1.07503" />
  <rect
     class="cls-2"
     x="77.907219"
     y="7.6541939"
     width="6.0201521"
     height="10.793273"
     id="rect19"
     style="stroke-width:1.07503" />
  <rect
     class="cls-2"
     x="67.887962"
     y="24.069859"
     width="5.6438928"
     height="10.793273"
     id="rect20"
     style="stroke-width:1.07503" />
  <rect
     class="cls-2"
     x="77.907219"
     y="24.069859"
     width="6.0201521"
     height="10.793273"
     id="rect21"
     style="stroke-width:1.07503" />
  <rect
     class="cls-2"
     x="67.887962"
     y="40.496269"
     width="5.6438928"
     height="10.793273"
     id="rect22"
     style="stroke-width:1.07503" />
  <rect
     class="cls-2"
     x="77.907219"
     y="40.496269"
     width="6.0201521"
     height="10.793273"
     id="rect23"
     style="stroke-width:1.07503" />
  <rect
     class="cls-2"
     x="67.887962"
     y="56.911938"
     width="5.6438928"
     height="10.793273"
     id="rect24"
     style="stroke-width:1.07503" />
  <rect
     class="cls-2"
     x="77.907219"
     y="56.911938"
     width="6.0201521"
     height="10.793273"
     id="rect25"
     style="stroke-width:1.07503" />
  <rect
     class="cls-2"
     x="88.980003"
     y="40.345768"
     width="2.8918231"
     height="8.2992096"
     id="rect26"
     style="stroke-width:1.07503" />
  <g
     class="cls-4"
     id="g26"
     transform="matrix(1.0750272,0,0,1.0750272,-5.3966363,-8.0304528)">
    <path
       class="cls-2"
       d="m 11.19,42.65 c 0,-6 3.17,-9.55 8.72,-9.55 5.55,0 8.61,3.53 8.61,9.55 0,6.02 -3.06,9.55 -8.61,9.55 -5.55,0 -8.72,-3.53 -8.72,-9.55 z m 11.94,0 c 0,-2.23 -0.47,-5.4 -3.22,-5.4 -2.75,0 -3.32,3.17 -3.32,5.4 0,2.23 0.57,5.4 3.32,5.4 2.75,0 3.22,-3.17 3.22,-5.4 z m 17.7,-10.07 h 4.26 L 22.66,71.09 H 18.4 Z M 34.8,61 c 0,-6 3.17,-9.55 8.72,-9.55 5.55,0 8.62,3.55 8.62,9.55 0,6 -3.06,9.55 -8.61,9.55 C 37.98,70.55 34.8,67 34.8,61 Z m 11.94,0 c 0,-2.23 -0.47,-5.4 -3.22,-5.4 -2.75,0 -3.32,3.19 -3.32,5.4 0,2.21 0.57,5.4 3.32,5.4 2.75,0 3.22,-3.15 3.22,-5.4 z"
       id="path26" />
  </g>
  <g
     class="cls-4"
     id="g27"
     transform="matrix(1.0750272,0,0,1.0750272,-5.3966363,-8.0304528)">
    <path
       class="cls-2"
       d="m 297.79,23.05 c 0,-6 3.17,-9.55 8.72,-9.55 5.55,0 8.61,3.53 8.61,9.55 0,6.02 -3.06,9.55 -8.61,9.55 -5.55,0 -8.72,-3.53 -8.72,-9.55 z m 11.94,0 c 0,-2.23 -0.47,-5.4 -3.22,-5.4 -2.75,0 -3.32,3.17 -3.32,5.4 0,2.23 0.57,5.4 3.32,5.4 2.75,0 3.21,-3.17 3.21,-5.4 z M 327.42,13 h 4.26 L 309.26,51.49 H 305 Z m -6,28.44 c 0,-6 3.17,-9.55 8.72,-9.55 5.55,0 8.61,3.53 8.61,9.55 0,6.02 -3.08,9.56 -8.63,9.56 -5.55,0 -8.72,-3.56 -8.72,-9.58 z m 11.94,0 c 0,-2.23 -0.47,-5.4 -3.22,-5.4 -2.75,0 -3.32,3.17 -3.32,5.4 0,2.23 0.57,5.4 3.32,5.4 2.75,0 3.2,-3.19 3.2,-5.42 z"
       id="path27" />
  </g>
  <rect
     class="cls-2"
     x="9.1377306"
     y="85.142151"
     width="38.700977"
     height="9.4494886"
     id="rect27"
     style="stroke-width:1.07503" />
  <rect
     class="cls-2"
     x="316.703"
     y="61.169048"
     width="38.700977"
     height="33.433346"
     id="rect28"
     style="stroke-width:1.07503" />
  <ellipse
     class="cls-5"
     cx="164.67265"
     cy="62.168823"
     rx="9.8579988"
     ry="16.66292"
     id="ellipse28" />
  <line
     class="cls-6"
     x1="164.4899"
     y1="62.168823"
     x2="164.4899"
     y2="88.141472"
     id="line28" />
  <path
     class="cls-5"
     d="m 174.69191,96.032176 a 6.9554257,6.9554257 0 0 0 -6.78342,-8.600218 10.169757,10.169757 0 0 0 -5.65464,1.634042 c -1.23628,-3.53684 -4.80537,-5.590141 -9.03023,-5.590141 -5.24613,0 -11.64254,4.300108 -11.64254,9.492489 a 6.9339251,6.9339251 0 0 0 0.74176,3.053077 z"
     id="path28" />
  <path
     class="cls-5"
     d="m 178.83077,96.032176 a 6.9554257,6.9554257 0 0 1 6.78342,-8.600218 10.169757,10.169757 0 0 1 5.65464,1.634042 c 1.23628,-3.53684 4.80537,-5.590141 9.03023,-5.590141 5.24613,0 11.64254,4.300108 11.64254,9.492489 a 6.9339251,6.9339251 0 0 1 -0.74177,3.053077 z"
     id="path29" />
  <path
     class="cls-2"
     d="m 265.2307,49.612503 v 11.578043 h 8.28846 V 49.612503 Z m 6.65442,9.944001 h -5.02038 v -8.30996 h 5.02038 z m 10.32026,6.041653 v 20.425516 h 11.75005 V 65.598157 Z m 10.18051,18.823725 h -8.60022 V 67.221448 h 8.60022 z m -75.0369,-18.812975 v 20.425516 h 11.75005 V 65.608907 Z m 10.073,18.812975 h -8.49271 V 67.221448 h 8.49271 z m 23.11309,-34.798629 v 11.567293 h 8.28846 V 49.612503 Z m 6.65442,9.944002 h -5.03113 v -8.320711 h 5.03113 z m -13.07233,-9.944002 h -8.27771 v 11.567293 h 8.28846 z m -1.63405,9.944002 H 237.452 v -8.320711 h 5.03112 z m 26.25217,-18.748474 -0.18276,-0.09675 h -28.43446 l -35.40065,20.533018 v 23.166835 a 14.297861,14.297861 0 0 1 1.63404,0.752519 V 62.201071 L 240.55883,42.35607 h 27.55294 l 37.62595,19.866502 V 95.172154 H 275.03495 V 75.015395 h -37.98071 v 20.156759 h -25.5104 a 7.9337004,7.9337004 0 0 1 -0.35476,0.849271 h -6.45016 v 0.78477 H 307.40401 V 61.233547 Z m 2.28981,35.819905 -14.97513,8.019702 -14.94288,-8.019702 z m -32.25082,0.548264 15.64165,8.395962 -15.7814,8.406712 z m 1.12878,17.985204 16.12541,-8.675469 16.1254,8.675469 z m 33.5086,-1.19328 -15.64165,-8.385212 15.64165,-8.395962 z"
     id="path30"
     style="stroke-width:1.07503" />
  <path
     class="cls-7"
     d="m 265.2307,49.612503 v 11.578043 h 8.28846 V 49.612503 Z m 6.65442,9.944001 h -5.02038 v -8.30996 h 5.02038 z m 10.32026,6.041653 v 20.425516 h 11.75005 V 65.598157 Z m 10.18051,18.823725 h -8.60022 V 67.221448 h 8.60022 z m -75.0369,-18.812975 v 20.425516 h 11.75005 V 65.608907 Z m 10.073,18.812975 h -8.49271 V 67.221448 h 8.49271 z m 23.11309,-34.798629 v 11.567293 h 8.28846 V 49.612503 Z m 6.65442,9.944002 h -5.03113 v -8.320711 h 5.03113 z m -13.07233,-9.944002 h -8.27771 v 11.567293 h 8.28846 z m -1.63405,9.944002 H 237.452 v -8.320711 h 5.03112 z m 26.25217,-18.748474 -0.18276,-0.09675 h -28.43446 l -35.40065,20.533018 v 23.166835 a 14.297861,14.297861 0 0 1 1.63404,0.752519 V 62.201071 L 240.55883,42.35607 h 27.55294 l 37.62595,19.866502 V 95.172154 H 275.03495 V 75.015395 h -37.98071 v 20.156759 h -25.5104 a 7.9337004,7.9337004 0 0 1 -0.35476,0.849271 h -6.45016 v 0.78477 H 307.40401 V 61.233547 Z m 2.28981,35.819905 -14.97513,8.019702 -14.94288,-8.019702 z m -32.25082,0.548264 15.64165,8.395962 -15.7814,8.406712 z m 1.12878,17.985204 16.12541,-8.675469 16.1254,8.675469 z m 33.5086,-1.19328 -15.64165,-8.385212 15.64165,-8.395962 z"
     id="path31" />
  <metadata
     id="metadata31">
    <rdf:RDF>
      <cc:Work
         rdf:about="">
        <dc:title>icon-view-local-stats</dc:title>
      </cc:Work>
    </rdf:RDF>
  </metadata>
</svg>
